<svg width="414" height="365" viewBox="0 0 414 365" fill="none" xmlns="http://www.w3.org/2000/svg">
<path d="M42.8648 95.4161C-85.7808 143.714 145.365 321.611 259.864 321.611C262.864 334.778 283.765 362.111 317.365 360.111C358.865 316.843 428.865 215.467 402.865 162.111C391.364 152.445 360.564 141.011 349.365 152.611C291.698 154.445 207.865 92.1113 169.365 26.1113C121.365 -16.2887 97.6981 14.8521 91.8648 35.7226C107.455 65.7032 143.708 120.366 156 119.5C141.214 133.055 123.495 156.153 111.803 170.611C100.445 170.611 61.1117 120.481 42.8648 95.4161Z" fill="white"/>
<path d="M91.8648 35.7226C42.2111 11.1225 38.0985 63.5561 42.8648 95.4161C61.1117 120.481 100.445 170.611 111.803 170.611C123.495 156.153 141.214 133.055 156 119.5C143.708 120.366 107.455 65.7032 91.8648 35.7226Z" fill="white"/>
<path d="M42.8648 95.4161C-85.7808 143.714 145.365 321.611 259.864 321.611C262.864 334.778 283.765 362.111 317.365 360.111C358.865 316.843 428.865 215.467 402.865 162.111C391.364 152.445 360.564 141.011 349.365 152.611C291.698 154.445 207.865 92.1113 169.365 26.1113C121.365 -16.2887 97.6981 14.8521 91.8648 35.7226M42.8648 95.4161C38.0985 63.5561 42.2111 11.1225 91.8648 35.7226M42.8648 95.4161C61.1117 120.481 100.445 170.611 111.803 170.611M91.8648 35.7226C107.455 65.7032 143.708 120.366 156 119.5M169.365 269.611C165.531 228.611 169.865 158.911 217.865 208.111L240.864 254.111M100.865 184.611C103.816 180.676 107.542 175.88 111.803 170.611M186.865 104.611C178.681 104.611 168.683 107.873 156 119.5M273.365 304.611C287.865 290.445 317.665 259.511 320.865 249.111M340.865 208.111C343.698 201.611 349.365 185.011 349.365 170.611M305.5 229.5C291.621 227.796 259.264 219.011 240.864 197.5M111.803 170.611C123.495 156.153 141.214 133.055 156 119.5" stroke="black" stroke-width="9"/>
<path d="M337.5 166C294.833 155.667 199.4 114.4 159 32C138.679 24.1295 99.7709 18.0109 106.701 56.5C87.6727 51.2038 51.1037 55.0113 57.0576 112.611C45.3717 114.204 23.1999 122.711 27.9999 144C40.8333 177 79.4999 240.3 131.5 229.5C143.045 201 173.608 144 203.5 144C232.167 174.861 299.1 222.467 337.5 166Z" fill="black" fill-opacity="0.08"/>
</svg>
