<svg width="1073" height="852" viewBox="0 0 1073 852" fill="none" xmlns="http://www.w3.org/2000/svg">
<path d="M661.328 619.832L661.561 621.896L659.528 621.468L503.028 588.468L501.949 588.24L501.845 587.142L472.845 282.142L472.689 280.5H474.338H621.838H623.179L623.328 281.832L661.328 619.832Z" fill="#ECECEC" stroke="black" stroke-width="3"/>
<path d="M483.652 180.011C501.811 57.8256 445.186 12.2266 415.405 11.8883C493.108 -25.2263 603.73 49.3086 622.706 116.538C641.758 184.038 586.94 241.254 559.016 260.813C555.063 265.998 552.895 270.046 555.51 274.593C565.814 283.075 631.33 413.405 581.465 493.5C585.869 529.117 590.982 603.746 579.43 613.155C568.018 622.449 450.853 612.74 394.396 608.062L392.336 607.891C393.014 501.69 408.68 295.309 442.359 285.017C443.293 285.115 444.198 284.993 445.065 284.624C444.671 322.697 447.884 388.846 443.791 407.629C443.791 407.629 435.778 411.808 435.904 416.326C436.024 420.661 443.615 424.573 443.615 424.573C443.615 424.573 450.646 420.665 450.846 416.496C451.055 412.137 443.791 407.629 443.791 407.629C447.884 388.846 444.671 322.697 445.065 284.624C454.505 280.605 473.787 226.679 477.233 220.586C480.679 214.493 483.652 180.011 483.652 180.011Z" fill="#F9FC76"/>
<path d="M442.359 285.017C408.68 295.309 393.014 501.69 392.336 607.891L374.967 601.417C377.707 497.122 409.519 276.689 437.422 280.144C440.651 282.063 438.337 284.594 442.359 285.017Z" fill="#F9FC76"/>
<path d="M443.791 407.629C443.791 407.629 451.055 412.137 450.846 416.496C450.646 420.665 443.615 424.573 443.615 424.573C443.615 424.573 436.024 420.661 435.904 416.326C435.778 411.808 443.791 407.629 443.791 407.629Z" fill="#F9FC76"/>
<path d="M539.838 24.1322C539.838 24.1322 591.156 95.3474 590.719 137.539C590.282 179.73 540.443 246.49 533.654 254.48C526.865 262.47 529.665 269.64 532.954 275.883C536.242 282.126 579.762 335.053 579.145 394.618C578.543 452.721 521.239 533.936 519.836 535.732C578.931 527.714 609.427 453.219 601.944 394.877C592.882 324.232 565.931 292.707 555.51 274.593C551.558 267.722 555.634 263.518 559.016 260.813C623.257 209.417 631.434 150.676 627.407 137.956C627.909 89.4785 573.223 38.1632 539.838 24.1322Z" fill="#040404" fill-opacity="0.17"/>
<path d="M479.484 572.888C484.191 575.884 502.999 557.593 507.336 552.739C502.479 556.5 482.776 567.696 478.836 562.388C476.633 559.421 464.993 557.97 460.336 559.388C452.737 561.067 443.607 551.199 444.336 545.622C443.085 536.92 438.336 529.888 440.336 515.388L434.364 522.888L434.61 525.972L433.336 528.888L434.364 532.388L436.221 537.888L438.836 543.882C435.805 563.705 449.845 565.287 461.336 566.888L470.336 569.78L479.484 572.888Z" fill="#040404" fill-opacity="0.17"/>
<path d="M579.43 613.155C589.958 608.864 586.904 536.982 582.878 503.985C576.747 511.091 568.43 521.29 559.835 527.304C550.555 533.798 540.307 537.852 534.884 540.673L538.23 541.331L534.813 547.498L524.8 543.04L509.315 613.605C536.29 616.558 570.895 616.632 579.43 613.155Z" fill="#040404" fill-opacity="0.17"/>
<path d="M415.405 11.8883C445.186 12.2266 501.811 57.8256 483.652 180.011C483.652 180.011 480.679 214.493 477.233 220.586C473.787 226.679 454.505 280.605 445.065 284.624L438.943 258.821C455.939 247.599 482.274 196.289 441.125 72.9059C439.751 68.4655 438.339 64.0934 436.9 59.8084C433.609 48.4101 426.07 34.3155 416.571 35.1244C412.906 38.0203 405.602 47.6459 405.707 62.9812C401.433 65.0878 397.241 67.6016 393.188 70.3742L393.075 70.2401C393.503 34.8453 407.669 16.795 415.405 11.8883Z" fill="#F9FC76"/>
<path d="M438.943 258.821L445.065 284.624C444.147 284.614 443.245 284.747 442.359 285.017C438.337 284.594 440.651 282.063 437.422 280.144C437.388 273.427 437.645 259.76 438.943 258.821Z" fill="#F9FC76"/>
<path d="M435.85 56.7126C425.815 55.4426 415.542 58.1341 405.707 62.9812C405.602 47.6459 412.906 38.0203 416.571 35.1244C426.07 34.3155 433.609 48.4101 436.9 59.8084C436.551 58.7713 436.201 57.7393 435.85 56.7126Z" fill="#CFD263"/>
<path fill-rule="evenodd" clip-rule="evenodd" d="M436.9 59.8084C438.339 64.0934 439.751 68.4655 441.125 72.9059C440.039 69.6481 438.905 66.3401 437.723 62.9812C437.489 61.9583 437.214 60.8956 436.9 59.8084Z" fill="#F26211"/>
<path d="M415.405 11.8883C445.186 12.2266 501.811 57.8256 483.652 180.011C483.652 180.011 480.679 214.493 477.233 220.586C473.787 226.679 454.505 280.605 445.065 284.624M415.405 11.8883C493.108 -25.2263 603.73 49.3086 622.706 116.538C641.758 184.038 586.94 241.254 559.016 260.813M415.405 11.8883C407.669 16.795 393.503 34.8453 393.075 70.2401L393.188 70.3742C397.241 67.6016 401.433 65.0878 405.707 62.9812M445.065 284.624L438.943 258.821M445.065 284.624C444.671 322.697 447.884 388.846 443.791 407.629M445.065 284.624C444.198 284.993 443.293 285.115 442.359 285.017M445.065 284.624C444.147 284.614 443.245 284.747 442.359 285.017M438.943 258.821C437.645 259.76 437.388 273.427 437.422 280.144M438.943 258.821C455.939 247.599 482.274 196.289 441.125 72.9059M438.943 258.821C474.918 228.886 462.666 142.514 441.125 72.9059M559.016 260.813C555.063 265.998 552.895 270.046 555.51 274.593M559.016 260.813C623.257 209.417 631.434 150.676 627.407 137.956C627.909 89.4785 573.223 38.1632 539.838 24.1322C539.838 24.1322 591.156 95.3474 590.719 137.539C590.282 179.73 540.443 246.49 533.654 254.48C526.865 262.47 529.665 269.64 532.954 275.883C536.242 282.126 579.762 335.053 579.145 394.618C578.543 452.721 521.239 533.936 519.836 535.732C578.931 527.714 609.427 453.219 601.944 394.877C592.882 324.232 565.931 292.707 555.51 274.593M559.016 260.813C555.634 263.518 551.558 267.722 555.51 274.593M555.51 274.593C565.814 283.075 631.33 413.405 581.465 493.5M478.206 482.709C478.237 479.697 497.772 433.766 511.378 416.555M478.206 482.709L475.668 469.008M478.206 482.709C478.174 485.738 486.416 542.473 524.415 537.827M511.378 416.555L525.54 429.269M511.378 416.555L532.258 408.006M511.378 416.555L539.274 420.638M511.378 416.555C511.378 416.555 503.036 406.418 496.683 392.538C490.329 378.658 490.492 362.968 490.492 362.968M581.465 493.5C575.207 503.552 568.188 513.852 557.717 521.899C544.652 531.939 533.654 536.697 524.415 537.827M581.465 493.5C585.869 529.117 590.982 603.746 579.43 613.155M579.43 613.155C568.018 622.449 450.853 612.74 394.396 608.062M579.43 613.155C589.958 608.864 586.904 536.982 582.878 503.985C576.747 511.091 568.43 521.29 559.835 527.304C550.555 533.798 540.307 537.852 534.884 540.673L538.23 541.331L534.813 547.498L524.8 543.04L509.315 613.605C536.29 616.558 570.895 616.632 579.43 613.155ZM392.336 607.891C393.014 501.69 408.68 295.309 442.359 285.017M392.336 607.891L374.967 601.417C377.707 497.122 409.519 276.689 437.422 280.144M392.336 607.891L394.396 608.062M392.336 607.891C393.013 607.947 393.7 608.004 394.396 608.062M443.791 407.629C443.791 407.629 451.055 412.137 450.846 416.496C450.646 420.665 443.615 424.573 443.615 424.573C443.615 424.573 436.024 420.661 435.904 416.326C435.778 411.808 443.791 407.629 443.791 407.629ZM442.359 285.017C438.337 284.594 440.651 282.063 437.422 280.144M509.967 552.739C509.967 552.739 485.697 579.467 477.25 574.963C468.742 570.425 463.009 569.78 463.009 569.78C463.009 569.78 448.858 568.699 443.559 565.793C436.295 561.81 435.971 545.622 435.971 545.622C435.971 545.622 434.303 538.471 432.19 534.281C428.37 526.706 437.569 516.768 441.513 512.42M524.415 537.827L534.683 542.485M405.707 62.9812C415.542 58.1341 425.815 55.4426 435.85 56.7126C436.201 57.7393 436.551 58.7713 436.9 59.8084M405.707 62.9812C405.602 47.6459 412.906 38.0203 416.571 35.1244C426.07 34.3155 433.609 48.4101 436.9 59.8084M436.9 59.8084C438.339 64.0934 439.751 68.4655 441.125 72.9059M436.9 59.8084C437.214 60.8956 437.489 61.9583 437.723 62.9812C438.905 66.3401 440.039 69.6481 441.125 72.9059M507.336 552.739C502.999 557.593 484.191 575.884 479.484 572.888L470.336 569.78L461.336 566.888C449.845 565.287 435.805 563.705 438.836 543.882L436.221 537.888L434.364 532.388L433.336 528.888L434.61 525.972L434.364 522.888L440.336 515.388C438.336 529.888 443.085 536.92 444.336 545.622C443.607 551.199 452.737 561.067 460.336 559.388C464.993 557.97 476.633 559.421 478.836 562.388C482.776 567.696 502.479 556.5 507.336 552.739Z" stroke="#222222" stroke-width="3"/>
<path d="M441.853 255.704C482.836 214.545 453.289 97.5 432 47.5C413.851 45.0297 400.627 45.5252 385.934 61.4781C370.103 78.6673 357.307 111.037 357.307 111.037L180.869 162.061C180.869 162.061 176.086 157.317 172.401 157.317C161.512 157.317 161.512 167.659 161.512 167.659C161.512 167.659 156.189 176.347 161.512 186.275L172.401 185.969C157.399 194.549 171.796 208.594 180.869 214.545C180.869 214.545 275.303 216.824 333.307 233.85C357.087 240.83 368.86 251.937 393.193 255.704C412.023 258.62 441.853 255.704 441.853 255.704Z" fill="#235B29"/>
<path d="M355.586 178C355.586 178 352.555 198.946 345.886 199.622C339.217 200.297 338.611 180.703 338.611 180.703L355.586 178Z" fill="#FFFAFA"/>
<path d="M334.973 181.378C334.973 181.378 332.548 200.297 325.879 200.973C319.211 201.649 317.392 183.405 317.392 183.405L334.973 181.378Z" fill="#FFFAFA"/>
<path d="M314.967 184.081C314.967 184.081 313.148 200.973 306.479 201.649C299.81 202.324 297.992 186.108 297.992 186.108L314.967 184.081Z" fill="#FFFAFA"/>
<path d="M294.96 186.784C294.96 186.784 293.141 201.649 286.473 202.324C279.804 203 277.985 188.811 277.985 188.811L294.96 186.784Z" fill="#FFFAFA"/>
<path d="M275.56 189.486C275.56 189.486 272.529 203 267.072 203C261.616 203 259.191 190.838 259.191 190.838L275.56 189.486Z" fill="#FFFAFA"/>
<path d="M257.372 190.838C257.372 190.838 254.341 202.324 248.885 202.324C243.428 202.324 241.003 191.513 241.003 191.513L257.372 190.838Z" fill="#FFFAFA"/>
<path d="M238.578 191.513C238.578 191.513 235.547 201.649 230.09 201.649C224.634 201.649 222.209 191.513 222.209 191.513H238.578Z" fill="#FFFAFA"/>
<path d="M218.572 191.513C218.572 191.513 215.54 201.649 210.084 201.649C204.628 201.649 204.628 190.838 204.628 190.838L218.572 191.513Z" fill="#FFFAFA"/>
<path d="M450.903 239.5C429.38 242.257 378.722 243.551 359.412 224.25C317.773 216.438 217.117 202.055 176.565 207.018L178.979 209.775L182.599 211.154C230.071 213.222 328.975 226.5 347.946 235.968C375.908 254 406.47 259.117 442.678 252.5L447.516 246.5L450.903 239.5Z" fill="#103A14"/>
<path d="M179.468 168H165.92C170.354 163.022 169.276 161 172.694 161C176.112 161 179.468 168 179.468 168Z" fill="#103A14"/>
<path d="M172.401 185.969L161.512 186.275C156.189 176.347 161.512 167.659 161.512 167.659C161.512 167.659 161.512 157.317 172.401 157.317C176.086 157.317 180.869 162.061 180.869 162.061L357.307 111.037C357.307 111.037 370.103 78.6673 385.934 61.4781C400.627 45.5252 413.851 45.0297 432 47.5C453.289 97.5 482.836 214.545 441.853 255.704C441.853 255.704 412.023 258.62 393.193 255.704C368.86 251.937 357.087 240.83 333.307 233.85C275.303 216.824 180.869 214.545 180.869 214.545C171.796 208.594 157.399 194.549 172.401 185.969ZM172.401 185.969C172.401 185.969 235.306 191.172 275.236 186.275C307.728 182.291 357.307 174.554 357.307 174.554M355.586 178C355.586 178 352.555 198.946 345.886 199.622C339.217 200.297 338.611 180.703 338.611 180.703L355.586 178ZM334.973 181.378C334.973 181.378 332.548 200.297 325.879 200.973C319.211 201.649 317.392 183.405 317.392 183.405L334.973 181.378ZM314.967 184.081C314.967 184.081 313.148 200.973 306.479 201.649C299.81 202.324 297.992 186.108 297.992 186.108L314.967 184.081ZM294.96 186.784C294.96 186.784 293.141 201.649 286.473 202.324C279.804 203 277.985 188.811 277.985 188.811L294.96 186.784ZM275.56 189.486C275.56 189.486 272.529 203 267.072 203C261.616 203 259.191 190.838 259.191 190.838L275.56 189.486ZM257.372 190.838C257.372 190.838 254.341 202.324 248.885 202.324C243.428 202.324 241.003 191.513 241.003 191.513L257.372 190.838ZM238.578 191.513C238.578 191.513 235.547 201.649 230.09 201.649C224.634 201.649 222.209 191.513 222.209 191.513H238.578ZM218.572 191.513C218.572 191.513 215.54 201.649 210.084 201.649C204.628 201.649 204.628 190.838 204.628 190.838L218.572 191.513ZM450.903 239.5C429.38 242.257 378.722 243.551 359.412 224.25C317.773 216.438 217.117 202.055 176.565 207.018L178.979 209.775L182.599 211.154C230.071 213.222 328.975 226.5 347.946 235.968C375.908 254 406.47 259.117 442.678 252.5L447.516 246.5L450.903 239.5ZM179.468 168H165.92C170.354 163.022 169.276 161 172.694 161C176.112 161 179.468 168 179.468 168Z" stroke="black" stroke-width="3"/>
<ellipse cx="20" cy="27.5" rx="20" ry="27.5" transform="matrix(-1 0 0 1 420 72)" fill="white"/>
<ellipse cx="6.5" cy="9" rx="6.5" ry="9" transform="matrix(-1 0 0 1 396.338 90.4261)" fill="black"/>
<ellipse cx="1.5" cy="2" rx="1.5" ry="2" transform="matrix(-1 0 0 1 388.338 95.4261)" fill="white"/>
<path d="M50.7094 828.908C50.5588 828.999 50.4155 829.086 50.2797 829.168L2.69157 737.837C2.97091 737.691 3.28347 737.528 3.62898 737.349C5.40963 736.424 8.0651 735.065 11.5546 733.335C18.5338 729.873 28.8489 724.924 42.1738 718.983C68.8244 707.1 107.511 691.251 155.626 675.4C251.864 643.695 385.772 612 536.5 612C687.236 612 820.399 642.698 915.888 673.404C963.628 688.756 1001.94 704.106 1028.31 715.614C1041.49 721.368 1051.69 726.161 1058.59 729.514C1062.04 731.19 1064.66 732.505 1066.42 733.401C1066.75 733.572 1067.06 733.727 1067.33 733.867L1019.7 829.136C1019.58 829.065 1019.46 828.991 1019.34 828.914C1017.86 828.005 1015.65 826.676 1012.75 824.986C1006.94 821.606 998.318 816.785 987.062 811.002C964.552 799.438 931.491 784.028 889.248 768.621C804.763 737.808 683.529 707 536.5 707C389.471 707 267.489 737.808 182.258 768.619C139.64 784.025 106.206 799.434 83.4154 810.998C72.0199 816.78 63.2848 821.601 57.3927 824.98C54.4466 826.67 52.2112 827.999 50.7094 828.908Z" fill="white" stroke="black" stroke-width="4"/>
<path d="M79.4117 782.308C80.725 781.65 81.8808 780.883 82.8792 780.006C83.8639 779.103 84.7254 778.158 85.4638 777.172C86.2021 776.186 86.8104 775.18 87.2887 774.154C87.7943 773.113 88.1906 772.128 88.4773 771.197L95.331 767.765L105.854 788.777L55.7853 813.851L46.8655 796.04L51.6048 792.383L38.9034 767.021L33.1365 768.625L24.2167 750.814L60.9884 732.399L69.9082 750.21L65.1689 753.867L79.4117 782.308Z" fill="#E50D0D"/>
<path d="M79.4117 782.308L77.6234 783.203L78.519 784.991L80.3073 784.096L79.4117 782.308ZM82.8792 780.006L84.1986 781.509L84.2153 781.495L84.2316 781.48L82.8792 780.006ZM87.2887 774.154L85.4899 773.279L85.4827 773.294L85.4758 773.309L87.2887 774.154ZM88.4773 771.197L87.5818 769.409L86.8177 769.791L86.566 770.608L88.4773 771.197ZM95.331 767.765L97.1193 766.869L96.2237 765.081L94.4354 765.977L95.331 767.765ZM105.854 788.777L106.749 790.565L108.538 789.67L107.642 787.882L105.854 788.777ZM55.7853 813.851L53.997 814.747L54.8926 816.535L56.6809 815.639L55.7853 813.851ZM46.8655 796.04L45.6438 794.456L44.3397 795.463L45.0773 796.935L46.8655 796.04ZM51.6048 792.383L52.8266 793.967L54.1307 792.96L53.3931 791.488L51.6048 792.383ZM38.9034 767.021L40.6917 766.125L39.9541 764.652L38.3673 765.094L38.9034 767.021ZM33.1365 768.625L31.3482 769.521L32.0858 770.994L33.6727 770.552L33.1365 768.625ZM24.2167 750.814L23.3212 749.026L21.5329 749.921L22.4285 751.71L24.2167 750.814ZM60.9884 732.399L62.7767 731.503L61.8811 729.715L60.0928 730.611L60.9884 732.399ZM69.9082 750.21L71.1299 751.794L72.434 750.788L71.6964 749.315L69.9082 750.21ZM65.1689 753.867L63.9471 752.284L62.643 753.29L63.3806 754.763L65.1689 753.867ZM80.3073 784.096C81.7575 783.37 83.059 782.51 84.1986 781.509L81.5598 778.503C80.7026 779.256 79.6924 779.93 78.5162 780.519L80.3073 784.096ZM84.2316 781.48C85.2997 780.5 86.2461 779.464 87.0645 778.371L83.863 775.973C83.2048 776.852 82.4281 777.706 81.5268 778.533L84.2316 781.48ZM87.0645 778.371C87.8785 777.284 88.5602 776.16 89.1016 774.998L85.4758 773.309C85.0606 774.2 84.5257 775.088 83.863 775.973L87.0645 778.371ZM89.0875 775.028C89.6298 773.912 90.0668 772.831 90.3887 771.786L86.566 770.608C86.3144 771.425 85.9589 772.315 85.4899 773.279L89.0875 775.028ZM89.3729 772.985L96.2265 769.553L94.4354 765.977L87.5818 769.409L89.3729 772.985ZM93.5427 768.66L104.066 789.673L107.642 787.882L97.1193 766.869L93.5427 768.66ZM104.958 786.989L54.8897 812.063L56.6809 815.639L106.749 790.565L104.958 786.989ZM57.5736 812.956L48.6538 795.144L45.0773 796.935L53.997 814.747L57.5736 812.956ZM48.0873 797.623L52.8266 793.967L50.3831 790.8L45.6438 794.456L48.0873 797.623ZM53.3931 791.488L40.6917 766.125L37.1151 767.916L49.8165 793.279L53.3931 791.488ZM38.3673 765.094L32.6004 766.699L33.6727 770.552L39.4396 768.947L38.3673 765.094ZM34.9248 767.73L26.005 749.918L22.4285 751.71L31.3482 769.521L34.9248 767.73ZM25.1123 752.602L61.884 734.187L60.0928 730.611L23.3212 749.026L25.1123 752.602ZM59.2001 733.295L68.1199 751.106L71.6964 749.315L62.7767 731.503L59.2001 733.295ZM68.6864 748.627L63.9471 752.284L66.3906 755.45L71.1299 751.794L68.6864 748.627ZM63.3806 754.763L77.6234 783.203L81.2 781.412L66.9572 752.971L63.3806 754.763Z" fill="black"/>
<path d="M88.8339 719.274L126.65 703.113L134.478 721.43L129.527 724.794L140.674 750.877L146.527 749.623L154.355 767.941L116.539 784.102L108.711 765.785L113.662 762.421L102.515 736.338L96.662 737.591L88.8339 719.274Z" fill="#E50D0D"/>
<path d="M88.8339 719.274L88.0479 717.435L86.2088 718.221L86.9948 720.06L88.8339 719.274ZM126.65 703.113L128.489 702.327L127.703 700.488L125.864 701.273L126.65 703.113ZM134.478 721.43L135.602 723.084L136.965 722.159L136.317 720.644L134.478 721.43ZM129.527 724.794L128.403 723.139L127.041 724.065L127.688 725.58L129.527 724.794ZM140.674 750.877L138.835 751.663L139.482 753.178L141.093 752.833L140.674 750.877ZM146.527 749.623L148.366 748.837L147.719 747.323L146.108 747.668L146.527 749.623ZM154.355 767.941L155.141 769.78L156.98 768.994L156.194 767.155L154.355 767.941ZM116.539 784.102L114.7 784.888L115.486 786.727L117.325 785.941L116.539 784.102ZM108.711 765.785L107.587 764.13L106.224 765.056L106.872 766.571L108.711 765.785ZM113.662 762.421L114.786 764.075L116.149 763.149L115.501 761.635L113.662 762.421ZM102.515 736.338L104.354 735.552L103.707 734.037L102.096 734.382L102.515 736.338ZM96.662 737.591L94.8229 738.377L95.4702 739.892L97.0809 739.547L96.662 737.591ZM89.6198 721.113L127.436 704.952L125.864 701.273L88.0479 717.435L89.6198 721.113ZM124.811 703.899L132.639 722.216L136.317 720.644L128.489 702.327L124.811 703.899ZM133.354 719.776L128.403 723.139L130.651 726.448L135.602 723.084L133.354 719.776ZM127.688 725.58L138.835 751.663L142.513 750.091L131.366 724.008L127.688 725.58ZM141.093 752.833L146.946 751.579L146.108 747.668L140.255 748.921L141.093 752.833ZM144.688 750.409L152.516 768.727L156.194 767.155L148.366 748.837L144.688 750.409ZM153.569 766.102L115.753 782.263L117.325 785.941L155.141 769.78L153.569 766.102ZM118.378 783.316L110.55 764.999L106.872 766.571L114.7 784.888L118.378 783.316ZM109.835 767.439L114.786 764.075L112.538 760.766L107.587 764.13L109.835 767.439ZM115.501 761.635L104.354 735.552L100.676 737.124L111.823 763.207L115.501 761.635ZM102.096 734.382L96.2432 735.636L97.0809 739.547L102.934 738.293L102.096 734.382ZM98.5011 736.805L90.6729 718.488L86.9948 720.06L94.8229 738.377L98.5011 736.805Z" fill="black"/>
<path d="M188.21 755.078L154.311 714.385L147.356 715.62L140.859 696.789L181.384 682.806L187.881 701.637L183.468 704.325L199.492 726.423L198.48 699.145L193.348 699.75L186.851 680.92L220.39 669.347L226.887 688.178L220.695 691.48L219.103 744.419L188.21 755.078Z" fill="#E50D0D"/>
<path d="M188.21 755.078L186.674 756.358L187.557 757.419L188.863 756.969L188.21 755.078ZM154.311 714.385L155.847 713.105L155.104 712.213L153.961 712.416L154.311 714.385ZM147.356 715.62L145.466 716.272L146.023 717.887L147.706 717.589L147.356 715.62ZM140.859 696.789L140.207 694.899L138.316 695.551L138.968 697.441L140.859 696.789ZM181.384 682.806L183.274 682.154L182.622 680.263L180.731 680.916L181.384 682.806ZM187.881 701.637L188.921 703.345L190.297 702.507L189.772 700.984L187.881 701.637ZM183.468 704.325L182.427 702.617L180.576 703.744L181.849 705.499L183.468 704.325ZM199.492 726.423L197.873 727.597L201.735 732.922L201.491 726.349L199.492 726.423ZM198.48 699.145L200.479 699.071L200.398 696.905L198.246 697.159L198.48 699.145ZM193.348 699.75L191.457 700.403L191.983 701.925L193.582 701.737L193.348 699.75ZM186.851 680.92L186.198 679.029L184.308 679.682L184.96 681.572L186.851 680.92ZM220.39 669.347L222.28 668.695L221.628 666.804L219.737 667.457L220.39 669.347ZM226.887 688.178L227.828 689.943L229.334 689.139L228.778 687.525L226.887 688.178ZM220.695 691.48L219.754 689.715L218.73 690.261L218.696 691.42L220.695 691.48ZM219.103 744.419L219.755 746.309L221.06 745.859L221.102 744.479L219.103 744.419ZM189.747 753.798L155.847 713.105L152.774 715.665L186.674 756.358L189.747 753.798ZM153.961 712.416L147.007 713.65L147.706 717.589L154.66 716.355L153.961 712.416ZM149.247 714.967L142.75 696.137L138.968 697.441L145.466 716.272L149.247 714.967ZM141.511 698.68L182.036 684.697L180.731 680.916L140.207 694.899L141.511 698.68ZM179.493 683.459L185.99 702.289L189.772 700.984L183.274 682.154L179.493 683.459ZM186.841 699.929L182.427 702.617L184.508 706.033L188.921 703.345L186.841 699.929ZM181.849 705.499L197.873 727.597L201.111 725.249L185.087 703.151L181.849 705.499ZM201.491 726.349L200.479 699.071L196.481 699.219L197.494 726.497L201.491 726.349ZM198.246 697.159L193.114 697.764L193.582 701.737L198.714 701.131L198.246 697.159ZM195.239 699.098L188.741 680.268L184.96 681.572L191.457 700.403L195.239 699.098ZM187.503 682.81L221.042 671.238L219.737 667.457L186.198 679.029L187.503 682.81ZM218.499 670L224.996 688.83L228.778 687.525L222.28 668.695L218.499 670ZM225.946 686.413L219.754 689.715L221.636 693.244L227.828 689.943L225.946 686.413ZM218.696 691.42L217.104 744.359L221.102 744.479L222.694 691.54L218.696 691.42ZM218.45 742.528L187.558 753.187L188.863 756.969L219.755 746.309L218.45 742.528Z" fill="black"/>
<path d="M283.25 707.598C285.265 707.08 287.12 706.429 288.814 705.645C290.501 704.832 292.016 703.968 293.361 703.054C294.735 702.131 295.941 701.173 296.981 700.179C298.021 699.185 298.912 698.228 299.655 697.311L307.078 695.4L312.935 718.159L253.505 733.452L248.541 714.161L253.944 711.585L246.898 684.204L240.922 684.557L235.935 665.177L295.365 649.883L301.222 672.642L294.065 674.483C292.949 674.075 291.681 673.691 290.261 673.33C288.841 672.968 287.292 672.719 285.614 672.582C283.958 672.408 282.199 672.387 280.337 672.519C278.467 672.62 276.51 672.935 274.465 673.461L277.588 685.596L290.18 679.275L294.229 695.01L280.15 695.552L283.25 707.598Z" fill="#E50D0D"/>
<path d="M283.25 707.598L281.313 708.097L281.812 710.034L283.749 709.535L283.25 707.598ZM288.814 705.645L289.654 707.461L289.668 707.454L289.683 707.447L288.814 705.645ZM293.361 703.054L292.246 701.393L292.235 701.4L293.361 703.054ZM299.655 697.311L299.157 695.374L298.517 695.538L298.101 696.052L299.655 697.311ZM307.078 695.4L309.015 694.902L308.517 692.965L306.58 693.463L307.078 695.4ZM312.935 718.159L313.433 720.096L315.37 719.597L314.872 717.66L312.935 718.159ZM253.505 733.452L251.568 733.951L252.067 735.888L254.003 735.389L253.505 733.452ZM248.541 714.161L247.68 712.355L246.193 713.064L246.604 714.659L248.541 714.161ZM253.944 711.585L254.805 713.391L256.292 712.682L255.881 711.087L253.944 711.585ZM246.898 684.204L248.835 683.706L248.424 682.111L246.78 682.208L246.898 684.204ZM240.922 684.557L238.986 685.055L239.396 686.651L241.04 686.554L240.922 684.557ZM235.935 665.177L235.437 663.24L233.5 663.738L233.998 665.675L235.935 665.177ZM295.365 649.883L297.302 649.385L296.804 647.448L294.867 647.946L295.365 649.883ZM301.222 672.642L301.72 674.579L303.657 674.08L303.159 672.143L301.222 672.642ZM294.065 674.483L293.379 676.362L293.962 676.575L294.564 676.42L294.065 674.483ZM285.614 672.582L285.405 674.571L285.428 674.574L285.451 674.576L285.614 672.582ZM280.337 672.519L280.446 674.516L280.462 674.515L280.478 674.514L280.337 672.519ZM274.465 673.461L273.967 671.524L272.03 672.022L272.529 673.959L274.465 673.461ZM277.588 685.596L275.651 686.094L276.269 688.496L278.485 687.383L277.588 685.596ZM290.18 679.275L292.117 678.776L291.499 676.375L289.282 677.487L290.18 679.275ZM294.229 695.01L294.306 697.009L296.784 696.913L296.166 694.512L294.229 695.01ZM280.15 695.552L280.073 693.554L277.596 693.649L278.214 696.051L280.15 695.552ZM283.749 709.535C285.868 708.99 287.838 708.3 289.654 707.461L287.975 703.83C286.402 704.557 284.663 705.17 282.752 705.662L283.749 709.535ZM289.683 707.447C291.445 706.597 293.048 705.685 294.486 704.707L292.235 701.4C290.984 702.252 289.556 703.067 287.946 703.844L289.683 707.447ZM294.475 704.714C295.931 703.737 297.23 702.708 298.363 701.624L295.599 698.733C294.653 699.638 293.539 700.525 292.246 701.393L294.475 704.714ZM298.363 701.624C299.451 700.584 300.403 699.565 301.21 698.569L298.101 696.052C297.421 696.892 296.59 697.786 295.599 698.733L298.363 701.624ZM300.154 699.247L307.577 697.337L306.58 693.463L299.157 695.374L300.154 699.247ZM305.141 695.899L310.998 718.657L314.872 717.66L309.015 694.902L305.141 695.899ZM312.437 716.222L253.007 731.515L254.003 735.389L313.433 720.096L312.437 716.222ZM255.442 732.954L250.478 713.662L246.604 714.659L251.568 733.951L255.442 732.954ZM249.401 715.966L254.805 713.391L253.084 709.78L247.68 712.355L249.401 715.966ZM255.881 711.087L248.835 683.706L244.961 684.703L252.007 712.084L255.881 711.087ZM246.78 682.208L240.805 682.561L241.04 686.554L247.016 686.201L246.78 682.208ZM242.859 684.059L237.872 664.678L233.998 665.675L238.986 685.055L242.859 684.059ZM236.434 667.114L295.864 651.82L294.867 647.946L235.437 663.24L236.434 667.114ZM293.428 650.382L299.285 673.14L303.159 672.143L297.302 649.385L293.428 650.382ZM300.723 670.705L293.567 672.546L294.564 676.42L301.72 674.579L300.723 670.705ZM294.752 672.605C293.56 672.169 292.225 671.766 290.754 671.391L289.768 675.268C291.137 675.616 292.339 675.982 293.379 676.362L294.752 672.605ZM290.754 671.391C289.211 670.999 287.55 670.734 285.776 670.589L285.451 674.576C287.034 674.705 288.471 674.938 289.768 675.268L290.754 671.391ZM285.823 670.593C284.038 670.406 282.161 670.385 280.196 670.524L280.478 674.514C282.237 674.389 283.878 674.411 285.405 674.571L285.823 670.593ZM280.228 670.521C278.211 670.631 276.123 670.969 273.967 671.524L274.964 675.398C276.897 674.9 278.723 674.609 280.446 674.516L280.228 670.521ZM272.529 673.959L275.651 686.094L279.525 685.097L276.402 672.962L272.529 673.959ZM278.485 687.383L291.077 681.062L289.282 677.487L276.691 683.808L278.485 687.383ZM288.243 679.773L292.292 695.509L296.166 694.512L292.117 678.776L288.243 679.773ZM294.152 693.012L280.073 693.554L280.227 697.551L294.306 697.009L294.152 693.012ZM278.214 696.051L281.313 708.097L285.187 707.1L282.087 695.054L278.214 696.051Z" fill="black"/>
<path d="M348.193 639.102L387.78 633.53C392.931 632.806 397.435 632.419 401.29 632.371C405.142 632.292 408.463 632.505 411.253 633.008C414.043 633.511 416.361 634.282 418.206 635.32C420.082 636.354 421.601 637.593 422.762 639.036C423.953 640.475 424.848 642.111 425.445 643.942C426.073 645.77 426.537 647.744 426.835 649.865C427.142 652.047 427.218 654.122 427.062 656.091C426.937 658.055 426.442 659.917 425.577 661.676C424.708 663.405 423.394 665.043 421.634 666.588C419.904 668.129 417.586 669.553 414.679 670.858C411.799 672.128 408.257 673.307 404.053 674.393C399.875 675.444 394.907 676.375 389.15 677.186L389.988 683.14L395.966 683.457L398.742 703.183L358.018 708.914L355.242 689.188L360.9 687.233L356.947 659.145L350.969 658.827L348.193 639.102ZM387.391 664.687C389.148 664.439 390.726 664.125 392.125 663.742C393.554 663.356 394.728 662.804 395.646 662.088C396.591 661.337 397.258 660.362 397.645 659.165C398.033 657.967 398.092 656.413 397.824 654.504C397.564 652.656 397.084 651.225 396.385 650.211C395.682 649.166 394.775 648.429 393.663 647.998C392.583 647.563 391.302 647.357 389.822 647.38C388.372 647.399 386.769 647.532 385.011 647.779L387.391 664.687Z" fill="black"/>
<path d="M518.149 643.957C518.168 644.937 518.202 645.9 518.25 646.848C518.296 647.764 518.342 648.666 518.387 649.552L518.78 657.299C519.108 663.778 518.506 669.415 516.972 674.211C515.467 678.975 513.264 682.962 510.363 686.173C507.491 689.352 504.056 691.702 500.058 693.222C496.061 694.742 491.77 695.618 487.186 695.851C483.61 696.032 480.16 695.962 476.835 695.64C473.541 695.348 470.441 694.632 467.534 693.492C464.625 692.323 461.96 690.803 459.536 688.935C457.111 687.036 454.989 684.753 453.169 682.088C451.377 679.391 449.934 676.293 448.837 672.795C447.771 669.295 447.126 665.344 446.903 660.944L446.227 647.605L440.301 646.756L439.292 626.862L477.385 624.93L478.394 644.824L472.585 646.268L472.884 652.181C472.923 652.945 472.963 653.724 473.003 654.519C473.042 655.283 473.078 656.001 473.112 656.673C473.177 657.344 473.222 657.939 473.249 658.459C473.275 658.978 473.294 659.36 473.307 659.605C473.346 660.369 473.406 661.254 473.487 662.261C473.569 663.268 473.745 664.316 474.015 665.406C474.313 666.463 474.719 667.515 475.232 668.561C475.744 669.607 476.45 670.537 477.349 671.349C478.277 672.129 479.411 672.746 480.752 673.198C482.123 673.65 483.786 673.826 485.742 673.727C487.698 673.627 489.32 673.285 490.607 672.699C491.926 672.111 493.007 671.382 493.851 670.512C494.694 669.611 495.318 668.615 495.722 667.522C496.157 666.427 496.454 665.34 496.613 664.26C496.772 663.149 496.84 662.088 496.82 661.078C496.83 660.067 496.815 659.179 496.777 658.415C496.764 658.17 496.745 657.788 496.719 657.269C496.692 656.749 496.647 656.154 496.582 655.483C496.548 654.811 496.512 654.093 496.473 653.329C496.432 652.534 496.393 651.755 496.354 650.991L496.054 645.078L490.129 644.229L489.12 624.335L522.95 622.619L523.958 642.514L518.149 643.957Z" fill="black"/>
<path d="M615.425 696.138L586.257 694.987C585.408 693.208 584.533 691.32 583.632 689.325C582.731 687.329 581.863 685.259 581.03 683.113C580.196 680.967 579.426 678.747 578.72 676.453C578.015 674.159 577.434 671.809 576.977 669.402L575.372 669.339L574.378 694.518L539.156 693.127L539.941 673.223L545.857 672.308L546.976 643.965L541.151 642.586L541.937 622.682L581.883 624.259C587.173 624.468 591.734 624.893 595.567 625.534C599.4 626.176 602.644 627.008 605.299 628.031C607.954 629.024 610.082 630.211 611.681 631.591C613.312 632.941 614.553 634.46 615.405 636.147C616.289 637.805 616.845 639.619 617.074 641.588C617.334 643.527 617.421 645.582 617.336 647.753C617.249 649.954 616.956 651.949 616.456 653.736C615.989 655.493 615.206 657.101 614.107 658.558C613.008 660.015 611.532 661.335 609.679 662.517C607.827 663.669 605.488 664.74 602.662 665.731C603.194 666.977 604.009 668.449 605.106 670.145C606.204 671.812 607.391 673.528 608.669 675.293C609.948 677.028 611.228 678.732 612.509 680.405C613.823 682.05 614.946 683.457 615.88 684.627L615.425 696.138ZM575.906 655.809C577.68 655.879 579.288 655.866 580.731 655.77C582.205 655.675 583.457 655.373 584.488 654.862C585.549 654.353 586.376 653.574 586.968 652.526C587.561 651.477 587.893 650.051 587.964 648.247C588.034 646.474 587.814 645.056 587.305 643.995C586.797 642.903 586.035 642.046 585.018 641.424C584.032 640.804 582.809 640.373 581.348 640.131C579.919 639.891 578.317 639.736 576.544 639.666L575.906 655.809Z" fill="black"/>
<path d="M660.513 665.015C660.19 667.627 660.247 669.915 660.683 671.88C661.119 673.846 661.899 675.514 663.025 676.887C664.181 678.262 665.65 679.353 667.431 680.159C669.243 680.968 671.348 681.521 673.747 681.817C676.602 682.169 680.016 682.236 683.989 682.017C687.963 681.798 692.393 681.25 697.28 680.373L694.649 701.692C689.557 702.729 684.643 703.325 679.907 703.48C675.201 703.64 670.601 703.442 666.106 702.887C660.61 702.209 655.546 700.891 650.917 698.932C646.318 696.977 642.429 694.262 639.25 690.787C636.106 687.285 633.803 683.085 632.342 678.188C630.88 673.29 630.538 667.698 631.313 661.412C632.07 655.278 633.648 650.108 636.048 645.902C638.478 641.701 641.57 638.383 645.323 635.948C649.111 633.486 653.473 631.866 658.409 631.088C663.376 630.313 668.775 630.286 674.606 631.005C678.189 631.448 681.386 632.027 684.196 632.744C687.036 633.464 689.576 634.24 691.817 635.071C694.057 635.903 696.015 636.776 697.69 637.692C699.4 638.581 700.913 639.431 702.232 640.241L699.646 661.196L685.935 659.504C684.656 657.126 683.123 655.303 681.337 654.034C679.582 652.769 677.702 652.013 675.698 651.766C673.997 651.556 672.301 651.686 670.609 652.156C668.947 652.629 667.415 653.426 666.013 654.548C664.61 655.67 663.415 657.11 662.427 658.869C661.443 660.598 660.805 662.646 660.513 665.015Z" fill="black"/>
<path d="M723.562 638.408L763.737 647.196L759.461 666.745L753.477 666.611L751.623 675.085L774.58 680.107L776.434 671.632L770.94 669.256L775.216 649.706L815.391 658.494L811.115 678.043L805.13 677.909L799.089 705.529L804.583 707.906L800.327 727.365L760.152 718.578L764.408 699.118L770.393 699.253L772.364 690.24L749.406 685.219L747.435 694.231L752.929 696.608L748.673 716.067L708.498 707.28L712.754 687.82L718.739 687.955L724.78 660.334L719.286 657.958L723.562 638.408Z" fill="black"/>
<path d="M860.034 746.338L861.296 734.305L843.029 728.438L837.092 738.968L812.227 730.981L819.302 708.956L825.028 709.59L852.055 669.726L888.15 681.321L886.949 729.482L891.973 732.301L884.898 754.325L860.034 746.338ZM851.602 714.656L862.352 718.109L865.105 691.081L851.602 714.656Z" fill="black"/>
<path d="M960.628 761.299C959.45 764.09 958.017 766.413 956.331 768.268C954.684 770.106 952.841 771.533 950.804 772.549C948.778 773.537 946.605 774.2 944.283 774.538C941.973 774.847 939.603 774.9 937.173 774.697C934.755 774.466 932.321 773.947 929.874 773.142C927.443 772.376 925.038 771.505 922.66 770.53C918.357 768.765 914.647 767.045 911.531 765.37C909.756 764.377 907.222 762.61 903.932 760.07C901.24 758.006 899.216 756.167 897.86 754.553L904.741 737.78L917.523 743.022C918.159 745.665 919.199 747.844 920.645 749.562C922.118 751.291 923.832 752.556 925.785 753.357C926.295 753.566 926.878 753.756 927.536 753.926C928.194 754.097 928.873 754.094 929.573 753.919C930.302 753.755 931.024 753.323 931.741 752.625C932.486 751.938 933.171 750.831 933.799 749.302C931.457 748.077 929.17 746.758 926.938 745.347C924.734 743.946 922.693 742.431 920.815 740.801C918.937 739.171 917.276 737.415 915.832 735.533C914.428 733.634 913.358 731.607 912.621 729.453C911.912 727.31 911.597 725.015 911.675 722.566C911.794 720.101 912.428 717.467 913.577 714.665C914.808 711.664 916.284 709.193 918.006 707.254C919.739 705.286 921.622 703.76 923.655 702.675C925.727 701.574 927.904 700.863 930.185 700.542C932.506 700.204 934.862 700.145 937.253 700.365C939.671 700.596 942.062 701.097 944.425 701.868C946.816 702.65 949.158 703.512 951.451 704.452C954.792 705.823 957.74 707.181 960.297 708.527C962.893 709.857 965.163 711.218 967.105 712.61C969.048 714.002 970.707 715.36 972.082 716.685C973.496 717.993 974.733 719.211 975.791 720.34L968.998 736.901L956.216 731.658C955.608 729.028 954.61 726.866 953.222 725.171C951.861 723.489 950.247 722.264 948.378 721.498C947.869 721.289 947.259 721.122 946.55 720.996C945.853 720.842 945.122 720.89 944.358 721.139C943.606 721.36 942.846 721.842 942.078 722.585C941.322 723.3 940.63 724.422 940.003 725.951C944.888 728.153 949.027 730.479 952.421 732.929C955.814 735.38 958.379 738.036 960.116 740.898C961.892 743.743 962.831 746.857 962.932 750.239C963.045 753.592 962.277 757.279 960.628 761.299Z" fill="black"/>
<path d="M1003.65 787.146C1005.51 788.073 1007.34 788.794 1009.14 789.31C1010.94 789.798 1012.66 790.136 1014.27 790.324C1015.91 790.526 1017.45 790.591 1018.89 790.519C1020.33 790.447 1021.63 790.307 1022.79 790.099L1029.65 793.512L1019.19 814.555L964.241 787.237L973.109 769.399L978.88 770.987L991.467 745.67L986.717 742.027L995.625 724.108L1050.58 751.426L1040.11 772.469L1033.5 769.179C1032.92 768.14 1032.21 767.02 1031.38 765.818C1030.54 764.615 1029.53 763.413 1028.35 762.212C1027.21 760.997 1025.89 759.83 1024.4 758.711C1022.92 757.565 1021.23 756.522 1019.34 755.582L1013.77 766.802L1027.42 770.26L1020.19 784.81L1009.19 776.008L1003.65 787.146Z" fill="black"/>
<path d="M314.838 581.5L404.838 281.5L516.338 300.5L478.838 628.5L314.838 581.5Z" fill="white"/>
<path d="M516.338 300.5C535.042 281.646 576.645 258.506 623.5 281.5C584.236 259.865 527.067 237.3 496.838 296V297L516.338 300.5Z" fill="#B6B6B6"/>
<path d="M313.401 581.069L312.965 582.523L314.425 582.942L478.425 629.942L480.127 630.43L480.328 628.67L517.769 301.19C536.394 282.658 577.088 260.394 622.839 282.847L624.224 280.186C604.567 269.355 580.197 258.15 556.847 257.126C545.137 256.612 533.638 258.655 523.12 264.623C512.6 270.593 503.171 280.426 495.504 295.313L495.45 295.419L405.09 280.021L403.782 279.799L403.401 281.069L313.401 581.069Z" stroke="black" stroke-width="3"/>
<path d="M418.076 312.975C418.599 313.072 419.099 313.103 419.579 313.068C420.06 313.022 420.515 312.937 420.943 312.814C421.371 312.691 421.766 312.533 422.128 312.341C422.5 312.151 422.83 311.953 423.116 311.747L425.842 312.252L424.294 320.61L404.379 316.922L405.691 309.837L407.856 309.816L409.724 299.728L407.71 298.933L409.022 291.848L423.648 294.557L422.336 301.642L420.171 301.663L418.076 312.975ZM431.157 295.948L445.784 298.656L444.472 305.741L442.307 305.762L440.438 315.85L442.452 316.645L441.14 323.73L426.514 321.021L427.826 313.937L429.991 313.915L431.859 303.827L429.845 303.032L431.157 295.948ZM452.205 325.796L448.79 306.946L446.382 306.094L447.693 299.01L462.94 301.833L461.628 308.918L459.76 308.977L460.864 318.788L465.408 310.023L463.685 309.299L464.997 302.214L477.615 304.551L476.303 311.636L473.766 311.571L463.828 327.948L452.205 325.796ZM488.596 326.035C489.336 326.172 490.044 326.241 490.719 326.242C491.396 326.232 492.025 326.18 492.605 326.085C493.196 325.992 493.738 325.861 494.231 325.694C494.723 325.526 495.161 325.348 495.545 325.16L498.271 325.665L496.724 334.023L474.898 329.981L476.21 322.897L478.375 322.876L480.238 312.82L478.224 312.025L479.542 304.908L501.367 308.949L499.819 317.307L497.191 316.821C496.887 316.517 496.53 316.197 496.119 315.862C495.708 315.527 495.238 315.21 494.708 314.909C494.192 314.599 493.618 314.324 492.987 314.084C492.358 313.832 491.669 313.637 490.918 313.498L490.092 317.954L495.186 317.8L494.116 323.579L489.415 321.611L488.596 326.035Z" fill="#E60D0D"/>
<path d="M332.133 556.138L340.701 558.658C341.816 558.986 342.768 559.323 343.557 559.669C344.348 560.008 345.004 560.358 345.525 560.718C346.046 561.078 346.447 561.449 346.726 561.83C347.013 562.214 347.207 562.606 347.31 563.007C347.42 563.409 347.451 563.825 347.403 564.252C347.363 564.682 347.275 565.127 347.14 565.586C347.001 566.058 346.825 566.487 346.611 566.873C346.405 567.261 346.132 567.594 345.794 567.873C345.457 568.144 345.039 568.356 344.538 568.508C344.044 568.662 343.441 568.738 342.729 568.735C342.026 568.728 341.196 568.64 340.241 568.473C339.294 568.302 338.197 568.033 336.951 567.666L336.572 568.955L337.759 569.571L336.503 573.841L327.689 571.249L328.945 566.979L330.276 567.104L332.064 561.024L330.877 560.408L332.133 556.138ZM337.747 564.961C338.127 565.073 338.477 565.154 338.797 565.206C339.123 565.259 339.413 565.255 339.666 565.194C339.928 565.129 340.153 564.992 340.343 564.784C340.532 564.576 340.687 564.265 340.809 563.852C340.927 563.452 340.961 563.117 340.912 562.846C340.866 562.569 340.749 562.335 340.563 562.145C340.383 561.956 340.142 561.796 339.838 561.664C339.542 561.534 339.203 561.413 338.823 561.302L337.747 564.961ZM364.744 570.634C364.675 570.842 364.611 571.048 364.552 571.251C364.494 571.448 364.437 571.642 364.381 571.832L363.892 573.494C363.483 574.885 362.94 576.029 362.263 576.927C361.594 577.82 360.835 578.499 359.986 578.962C359.146 579.42 358.248 579.662 357.293 579.687C356.338 579.713 355.369 579.581 354.385 579.292C353.618 579.066 352.895 578.797 352.218 578.483C351.545 578.179 350.944 577.799 350.415 577.344C349.888 576.883 349.438 576.365 349.065 575.793C348.694 575.213 348.415 574.575 348.228 573.879C348.049 573.178 347.973 572.418 348 571.6C348.034 570.783 348.189 569.902 348.467 568.958L349.309 566.095L348.122 565.479L349.378 561.21L357.552 563.614L356.297 567.883L354.965 567.759L354.592 569.028C354.544 569.192 354.495 569.359 354.445 569.53C354.396 569.694 354.351 569.848 354.309 569.992C354.273 570.138 354.239 570.267 354.206 570.378C354.173 570.49 354.149 570.572 354.133 570.624C354.085 570.788 354.033 570.98 353.975 571.198C353.918 571.416 353.878 571.65 353.855 571.9C353.84 572.145 353.847 572.396 353.878 572.655C353.909 572.913 353.989 573.161 354.119 573.399C354.257 573.632 354.451 573.846 354.7 574.04C354.956 574.237 355.294 574.396 355.713 574.52C356.133 574.643 356.5 574.691 356.815 574.662C357.136 574.636 357.418 574.562 357.661 574.441C357.905 574.313 358.11 574.149 358.276 573.948C358.448 573.749 358.591 573.542 358.704 573.326C358.82 573.103 358.912 572.885 358.983 572.67C359.059 572.458 359.122 572.27 359.17 572.106C359.186 572.053 359.21 571.971 359.242 571.86C359.275 571.748 359.31 571.619 359.345 571.473C359.388 571.329 359.433 571.175 359.481 571.011C359.532 570.84 359.581 570.673 359.629 570.509L360.002 569.24L358.815 568.624L360.071 564.354L367.331 566.489L366.075 570.759L364.744 570.634ZM380.88 586.891L374.623 585.051C374.536 584.619 374.45 584.163 374.363 583.681C374.277 583.2 374.202 582.704 374.138 582.193C374.074 581.683 374.029 581.16 374.001 580.625C373.973 580.089 373.975 579.548 374.008 579.002L373.664 578.901L372.075 584.302L364.52 582.08L365.776 577.81L367.107 577.935L368.895 571.855L367.708 571.239L368.964 566.97L377.532 569.489C378.667 569.823 379.632 570.164 380.427 570.512C381.223 570.86 381.88 571.217 382.399 571.583C382.921 571.943 383.317 572.316 383.588 572.703C383.868 573.084 384.054 573.481 384.146 573.893C384.247 574.3 384.269 574.723 384.211 575.162C384.162 575.597 384.069 576.047 383.932 576.512C383.793 576.985 383.621 577.401 383.415 577.761C383.218 578.116 382.961 578.421 382.643 578.677C382.326 578.933 381.934 579.138 381.468 579.294C381.004 579.442 380.439 579.547 379.772 579.607C379.82 579.906 379.916 580.269 380.061 580.697C380.208 581.118 380.372 581.554 380.553 582.006C380.735 582.452 380.92 582.891 381.106 583.323C381.301 583.751 381.467 584.117 381.606 584.422L380.88 586.891ZM374.517 575.999C374.897 576.111 375.246 576.196 375.564 576.253C375.889 576.313 376.177 576.316 376.428 576.262C376.685 576.209 376.907 576.085 377.093 575.891C377.278 575.696 377.428 575.405 377.542 575.018C377.653 574.638 377.683 574.319 377.631 574.061C377.58 573.797 377.462 573.569 377.275 573.379C377.096 573.191 376.854 573.031 376.551 572.899C376.254 572.769 375.916 572.648 375.535 572.536L374.517 575.999ZM390.837 581.418C390.671 581.982 390.6 582.489 390.625 582.938C390.65 583.387 390.761 583.783 390.959 584.126C391.164 584.471 391.448 584.765 391.812 585.007C392.182 585.252 392.626 585.45 393.144 585.602C393.76 585.784 394.51 585.922 395.394 586.018C396.278 586.114 397.275 586.154 398.384 586.139L397.03 590.742C395.87 590.786 394.765 590.739 393.715 590.601C392.672 590.466 391.665 590.255 390.695 589.97C389.507 589.62 388.439 589.146 387.49 588.546C386.547 587.948 385.788 587.209 385.214 586.327C384.648 585.441 384.293 584.432 384.148 583.299C384.004 582.166 384.132 580.921 384.531 579.564C384.92 578.239 385.456 577.157 386.138 576.317C386.826 575.479 387.628 574.86 388.544 574.459C389.468 574.054 390.488 573.855 391.605 573.863C392.728 573.873 393.919 574.063 395.178 574.433C395.952 574.66 396.635 574.904 397.229 575.164C397.829 575.426 398.361 575.689 398.824 575.954C399.288 576.219 399.688 576.482 400.024 576.745C400.368 577.003 400.671 577.245 400.932 577.472L399.602 581.997L396.641 581.126C396.445 580.556 396.173 580.098 395.826 579.754C395.485 579.411 395.098 579.176 394.665 579.049C394.298 578.941 393.919 578.908 393.529 578.95C393.146 578.994 392.779 579.114 392.429 579.311C392.079 579.507 391.763 579.781 391.482 580.133C391.202 580.478 390.987 580.907 390.837 581.418ZM403.158 577.026L411.973 579.618L410.711 583.907L409.38 583.782L408.833 585.642L413.87 587.123L414.417 585.264L413.23 584.647L414.491 580.358L423.305 582.95L422.044 587.239L420.712 587.115L418.93 593.175L420.117 593.791L418.862 598.061L410.047 595.468L411.303 591.199L412.635 591.323L413.216 589.346L408.179 587.865L407.598 589.842L408.785 590.458L407.529 594.728L398.715 592.136L399.97 587.866L401.302 587.991L403.084 581.931L401.897 581.315L403.158 577.026ZM431.188 601.685L431.403 598.991L427.291 597.782L426.023 600.167L420.426 598.521L421.884 593.562L423.166 593.672L428.981 584.62L437.107 587.009L437.106 597.772L438.243 598.373L436.785 603.332L431.188 601.685ZM429.129 594.656L431.549 595.368L432.014 589.316L429.129 594.656ZM452.7 602.86C452.502 603.507 452.237 604.056 451.905 604.507C451.582 604.954 451.205 605.313 450.776 605.586C450.348 605.852 449.881 606.05 449.373 606.178C448.866 606.3 448.341 606.366 447.796 606.377C447.253 606.381 446.701 606.322 446.138 606.2C445.581 606.085 445.026 605.947 444.475 605.785C443.478 605.492 442.614 605.195 441.883 604.895C441.466 604.715 440.862 604.381 440.073 603.892C439.427 603.496 438.935 603.134 438.597 602.806L439.739 598.92L442.7 599.791C442.902 600.364 443.184 600.824 443.545 601.172C443.912 601.523 444.322 601.764 444.774 601.897C444.892 601.932 445.026 601.961 445.176 601.984C445.327 602.006 445.477 601.99 445.629 601.935C445.787 601.882 445.938 601.769 446.081 601.598C446.231 601.428 446.358 601.166 446.462 600.812C445.913 600.593 445.375 600.353 444.846 600.091C444.324 599.83 443.836 599.541 443.381 599.222C442.926 598.903 442.516 598.551 442.152 598.166C441.797 597.776 441.512 597.35 441.299 596.889C441.092 596.429 440.969 595.926 440.93 595.38C440.9 594.829 440.98 594.23 441.171 593.58C441.375 592.885 441.646 592.302 441.984 591.832C442.324 591.354 442.707 590.972 443.134 590.684C443.569 590.392 444.036 590.183 444.536 590.06C445.044 589.931 445.566 589.864 446.103 589.858C446.645 589.853 447.188 589.91 447.731 590.027C448.28 590.145 448.82 590.283 449.352 590.439C450.126 590.667 450.812 590.901 451.411 591.141C452.019 591.377 452.554 591.627 453.018 591.891C453.482 592.156 453.882 592.42 454.218 592.682C454.562 592.94 454.865 593.183 455.126 593.409L453.998 597.246L451.037 596.375C450.841 595.804 450.57 595.347 450.222 595.002C449.881 594.66 449.494 594.425 449.061 594.298C448.943 594.263 448.804 594.24 448.644 594.228C448.485 594.21 448.324 594.237 448.16 594.31C447.998 594.377 447.84 594.501 447.686 594.684C447.535 594.86 447.407 595.126 447.303 595.48C448.439 595.857 449.412 596.278 450.223 596.745C451.033 597.211 451.664 597.742 452.116 598.338C452.576 598.93 452.857 599.6 452.957 600.349C453.059 601.092 452.974 601.929 452.7 602.86ZM461.742 606.566C462.188 606.698 462.618 606.785 463.033 606.829C463.45 606.866 463.839 606.873 464.202 606.852C464.571 606.832 464.912 606.786 465.226 606.715C465.539 606.643 465.819 606.561 466.067 606.47L467.71 606.953L466.229 611.99L453.076 608.122L454.332 603.853L455.663 603.977L457.445 597.917L456.258 597.301L457.52 593.012L470.672 596.88L469.191 601.917L467.607 601.451C467.44 601.245 467.24 601.026 467.009 600.794C466.778 600.562 466.51 600.337 466.203 600.119C465.905 599.896 465.57 599.691 465.198 599.503C464.828 599.308 464.416 599.144 463.964 599.011L463.174 601.697L466.313 601.925L465.289 605.408L462.526 603.901L461.742 606.566Z" fill="black"/>
<path d="M480.367 374.033C464.283 346.174 443.48 345.123 410.15 364.366C490.049 336.425 464.439 506.377 398.259 524.693C410.869 527.048 425.575 520.29 442.94 510.264C476.577 490.844 496.452 401.892 480.367 374.033Z" fill="#C2AB61"/>
<path d="M410.15 364.366C376.821 383.609 353.26 473.742 369.345 501.601C377.049 514.945 386.666 522.528 398.259 524.693C464.439 506.377 490.049 336.425 410.15 364.366Z" fill="#EEE192"/>
<path d="M388.319 390.507C394.905 379.018 402.49 369.975 410.57 365.279C420.38 361.863 428.469 361.513 435.011 363.441C441.56 365.371 446.67 369.615 450.462 375.59C458.082 387.595 460.324 406.516 457.991 427.071C455.661 447.587 448.792 469.541 438.407 487.485C428.058 505.368 414.304 519.123 398.216 523.667C387.087 521.514 377.762 514.179 370.211 501.101C366.334 494.385 364.782 483.761 365.247 471.148C365.712 458.573 368.174 444.174 372.18 430.025C376.185 415.876 381.723 402.014 388.319 390.507ZM418.48 521.18C412.954 523.151 407.822 524.232 403.034 524.16C417.961 518.364 430.566 505.026 440.138 488.487C450.672 470.286 457.62 448.064 459.978 427.296C462.332 406.566 460.132 387.093 452.15 374.518C448.142 368.203 442.661 363.611 435.576 361.523C430.546 360.041 424.764 359.837 418.202 361.116C431.371 354.398 442.291 351.433 451.609 352.53C462.56 353.819 471.55 360.761 479.501 374.533C483.387 381.263 485.162 391.828 485.035 404.331C484.909 416.799 482.895 431.057 479.33 445.067C475.765 459.077 470.657 472.804 464.365 484.22C458.061 495.656 450.622 504.675 442.44 509.398C433.769 514.405 425.815 518.563 418.48 521.18Z" stroke="black" stroke-width="2"/>
<mask id="mask0_68_2899" style="mask-type:alpha" maskUnits="userSpaceOnUse" x="364" y="351" width="123" height="175">
<path d="M480.367 374.033C464.283 346.174 443.48 345.123 410.15 364.366C490.049 336.425 464.439 506.377 398.259 524.693C410.869 527.048 425.575 520.29 442.94 510.264C476.577 490.844 496.452 401.892 480.367 374.033Z" fill="#C2AB61"/>
<path d="M410.15 364.366C376.821 383.609 353.26 473.742 369.345 501.601C377.049 514.945 386.666 522.528 398.259 524.693C464.439 506.377 490.049 336.425 410.15 364.366Z" fill="#EEE192"/>
<path d="M388.319 390.507C394.905 379.017 402.49 369.975 410.57 365.279C420.38 361.863 428.469 361.513 435.011 363.441C441.56 365.371 446.67 369.615 450.462 375.59C458.082 387.595 460.324 406.516 457.991 427.07C455.661 447.587 448.792 469.541 438.407 487.485C428.058 505.368 414.304 519.123 398.216 523.667C387.087 521.514 377.762 514.179 370.211 501.101C366.334 494.385 364.782 483.761 365.247 471.148C365.712 458.573 368.174 444.174 372.18 430.025C376.185 415.876 381.723 402.014 388.319 390.507ZM418.48 521.18C412.954 523.151 407.822 524.232 403.034 524.16C417.961 518.364 430.566 505.026 440.138 488.487C450.672 470.286 457.62 448.064 459.978 427.296C462.332 406.566 460.132 387.093 452.15 374.518C448.142 368.203 442.661 363.611 435.576 361.523C430.546 360.041 424.764 359.837 418.202 361.116C431.371 354.398 442.291 351.433 451.609 352.53C462.56 353.819 471.55 360.761 479.501 374.533C483.387 381.263 485.162 391.827 485.035 404.331C484.909 416.799 482.895 431.057 479.33 445.067C475.765 459.077 470.657 472.804 464.365 484.22C458.061 495.655 450.622 504.675 442.44 509.398C433.769 514.404 425.815 518.563 418.48 521.18Z" stroke="black" stroke-width="2"/>
</mask>
<g mask="url(#mask0_68_2899)">
<path d="M358.17 575.783C358.161 575.777 358.152 575.77 358.144 575.763C356.401 574.258 362.247 550.099 365.353 538.853C365.432 539.1 365.513 539.359 365.598 539.627L365.598 539.628C366.303 541.869 367.199 544.715 368.373 546.421C369.419 547.94 370.663 548.999 371.605 549.8C371.941 550.086 372.238 550.34 372.474 550.569L371.753 550.847L372.011 552.892L374.344 551.212L372.534 574.989C370.39 575.536 368.019 575.932 365.821 576.157L365.821 576.157C362.223 576.525 359.088 576.433 358.17 575.783Z" fill="#C2AB61"/>
<path fill-rule="evenodd" clip-rule="evenodd" d="M451.025 415.149C451.439 415.307 451.773 415.481 451.996 415.665C451.706 415.505 451.38 415.332 451.025 415.149Z" fill="#C2AB61"/>
<path d="M433.23 371.006C427.069 371.615 412.252 387.86 407.561 428.563C407.561 428.563 405.794 440.086 406.084 442.074C406.373 444.062 406.625 461.838 408.293 463.03L411.585 454.451C411.469 454.303 411.354 454.131 411.243 453.934C411.24 453.936 411.238 453.938 411.235 453.94C411.229 453.923 411.224 453.907 411.218 453.89C409.244 450.324 408.22 438.858 415.919 414.317C419.164 403.7 423.143 393.481 426.194 386.404C426.206 386.401 426.218 386.397 426.23 386.394C427.724 382.793 429.93 378.904 431.634 379.005C432.395 379.663 433.59 382.074 432.281 386.455C436.491 380.89 434.668 373.837 433.23 371.006Z" fill="#C2AB61"/>
<path fill-rule="evenodd" clip-rule="evenodd" d="M407.561 428.563C412.252 387.86 427.069 371.615 433.23 371.006C419.778 359.843 392.505 386.783 383.954 409.66C382.505 413.537 381.491 417.279 380.828 420.849C381.04 419.881 381.267 419.103 381.483 418.546C384.773 402.048 399.604 383.117 407.324 377.8C407.324 377.8 391.781 403.452 388.918 417.811C386.054 432.17 391.445 454.096 392.256 456.707C393.068 459.318 392.001 461.804 390.9 463.983C390.75 464.281 390.386 464.889 389.86 465.769C386.541 471.315 376.76 487.66 373.271 505.158C369.328 524.932 375.244 548.656 375.402 549.245L375.403 549.245C375.406 549.26 375.406 549.26 375.402 549.245C364.034 547.469 363.059 525.6 368.651 505.614C374.5 484.708 380.82 473.389 384.606 466.609C385.203 465.541 385.736 464.585 386.195 463.723C387.474 461.319 387.251 458.428 386.758 457.561C386.669 457.406 386.582 457.25 386.495 457.094C386.926 458.854 387.139 462.72 384.775 465.354C382.066 468.372 361.113 509.684 365.861 535.735C362.495 547.761 356.197 572.555 357.928 575.52C357.978 575.606 358.048 575.685 358.137 575.757L358.144 575.763C356.401 574.258 362.247 550.099 365.353 538.853C365.432 539.1 365.513 539.359 365.598 539.627L365.598 539.628C366.303 541.869 367.199 544.715 368.373 546.421C369.419 547.94 370.663 548.999 371.605 549.8C371.941 550.086 372.238 550.34 372.474 550.569L371.753 550.847L372.011 552.892L374.344 551.212L372.534 574.989C370.39 575.536 368.019 575.932 365.821 576.157C374.557 575.32 388.382 572.419 396.411 570.734L396.411 570.734L396.847 570.643C404.038 535.013 415.054 466.011 408.823 463.117C408.624 463.166 408.446 463.14 408.293 463.03C405.746 475.801 400.519 498.054 400.066 504.29C400.066 504.29 401.428 505.559 401.091 507.077C400.767 508.534 398.932 509.973 398.932 509.973C398.932 509.973 397.753 508.779 398 507.383C398.258 505.924 400.066 504.29 400.066 504.29C400.519 498.054 405.746 475.801 408.293 463.03C406.625 461.838 406.373 444.062 406.084 442.074C405.794 440.086 407.561 428.563 407.561 428.563ZM376.932 554.269C377.468 555.851 380.426 562.15 381.586 561.054L382.831 560.092L384.042 559.362C384.447 559.24 384.904 559.152 385.389 559.059C387.811 558.591 390.91 557.994 391.556 552.41L391.986 550.918L392.511 549.624L392.949 548.236L393.257 547.548L393.822 546.39L393.929 544.516C393.603 545.6 392.911 547.03 392.177 548.549C391.321 550.317 390.408 552.206 389.944 553.811C389.701 555.698 387.463 558.015 386.046 557.567C385.205 557.159 382.658 557.901 382.006 558.947C380.84 560.818 377.662 555.492 376.945 554.29L376.932 554.269Z" fill="#C2AB61"/>
<path d="M388.918 417.811C391.781 403.452 407.324 377.8 407.324 377.8C399.604 383.117 384.773 402.048 381.483 418.546C381.267 419.103 381.04 419.881 380.828 420.849C380.465 422.8 380.207 424.701 380.04 426.545C379.473 434.23 380.349 445.742 386.246 456.64C386.316 456.741 386.385 456.839 386.454 456.934C386.468 456.985 386.481 457.039 386.495 457.094C386.582 457.25 386.669 457.406 386.758 457.561C387.251 458.428 387.474 461.319 386.195 463.723C385.736 464.585 385.203 465.541 384.606 466.609C380.82 473.389 374.5 484.708 368.651 505.614C363.059 525.6 364.034 547.469 375.402 549.245C375.244 548.656 369.328 524.932 373.271 505.158C376.76 487.66 386.541 471.315 389.86 465.769C390.386 464.889 390.75 464.281 390.9 463.983C392.001 461.804 393.068 459.318 392.256 456.707C391.445 454.096 386.054 432.17 388.918 417.811Z" fill="#C2AB61"/>
<path d="M408.823 463.117C415.054 466.011 404.038 535.013 396.847 570.643L401.122 568.363C407.756 533.407 416.415 459.958 410.426 461.581C409.628 462.279 409.681 462.908 408.823 463.117Z" fill="#C2AB61"/>
<path d="M432.281 386.455C433.59 382.074 432.395 379.663 431.634 379.005C429.93 378.904 427.724 382.793 426.23 386.394C428.337 385.81 430.419 385.826 432.281 386.455Z" fill="#C2AB61"/>
<path fill-rule="evenodd" clip-rule="evenodd" d="M429.319 440.496C432.931 438.933 436.072 441.134 438.818 440.623C433.866 422.997 439.484 416.497 442.314 415.13C444.681 413.986 448.907 414.345 451.025 415.149C447.49 413.332 441.021 410.569 437.195 410.947C441.789 396.451 438.124 388.43 432.281 386.455C430.419 385.826 428.337 385.81 426.23 386.394C425.898 387.195 425.601 387.981 425.353 388.706C421.293 398.5 418.217 406.991 415.919 414.317C411.348 429.271 408.233 445.016 411.218 453.89C411.226 453.905 411.235 453.919 411.243 453.934C416.182 450.32 423.171 443.156 429.319 440.496ZM421.022 402.399C423.135 395.101 425.572 392.875 427.246 392.266C428.379 392.154 429.899 392.509 430.643 394.667C431.122 396.056 431.279 398.193 430.805 401.432C429.594 409.705 424.557 414.899 422.321 415.12C420.268 414.88 418.909 409.697 421.022 402.399Z" fill="#C2AB61"/>
<path d="M427.246 392.266C425.572 392.875 423.135 395.101 421.022 402.399C418.909 409.697 420.268 414.88 422.321 415.12C424.557 414.899 429.594 409.705 430.805 401.432C431.279 398.193 431.122 396.056 430.643 394.667C429.899 392.509 428.379 392.154 427.246 392.266C427.246 392.266 429.592 392.122 430.581 394.673C431.57 397.225 429.259 409.185 426.927 410.572C425.524 411.406 426.182 409.187 427.053 406.252C427.629 404.311 428.298 402.056 428.525 400.164C429.095 395.412 427.246 392.266 427.246 392.266Z" fill="#C2AB61"/>
<path fill-rule="evenodd" clip-rule="evenodd" d="M415.919 414.317C419.164 403.7 423.143 393.481 426.194 386.404L426.23 386.394C425.898 387.195 425.601 387.981 425.353 388.706C421.293 398.5 418.217 406.991 415.919 414.317ZM411.218 453.89C411.224 453.907 411.229 453.923 411.235 453.94L411.243 453.934C411.235 453.919 411.226 453.905 411.218 453.89Z" fill="#C2AB61"/>
<path d="M427.246 392.266C427.246 392.266 429.095 395.412 428.525 400.164C428.298 402.056 427.629 404.311 427.053 406.252C426.182 409.187 425.524 411.406 426.927 410.572C429.259 409.185 431.57 397.225 430.581 394.673C429.592 392.122 427.246 392.266 427.246 392.266Z" fill="#C2AB61"/>
<path fill-rule="evenodd" clip-rule="evenodd" d="M442.314 415.13C439.484 416.497 433.866 422.997 438.818 440.623C447.184 439.796 455.08 418.2 451.996 415.665C451.706 415.505 451.38 415.332 451.025 415.149C448.907 414.345 444.681 413.986 442.314 415.13ZM443.59 418.571C439.112 419.014 436.872 426.111 440.2 435.569C442.651 431.953 446.765 420.789 443.59 418.571ZM449.153 418.022C446.575 418.276 443.795 424.879 445.085 435.087C447.409 430.99 454.752 416.625 449.153 418.022Z" fill="#C2AB61"/>
<path d="M449.153 418.022C446.575 418.276 443.795 424.879 445.085 435.087C447.409 430.99 454.752 416.625 449.153 418.022Z" fill="#C2AB61"/>
<path d="M443.59 418.571C439.112 419.014 436.872 426.111 440.2 435.569C442.651 431.953 446.765 420.789 443.59 418.571Z" fill="#C2AB61"/>
<path d="M401.091 507.077C401.428 505.559 400.066 504.29 400.066 504.29C400.066 504.29 398.258 505.924 398 507.383C397.753 508.779 398.932 509.973 398.932 509.973C398.932 509.973 400.767 508.534 401.091 507.077Z" fill="#C2AB61"/>
<path fill-rule="evenodd" clip-rule="evenodd" d="M375.403 549.245C375.406 549.26 375.406 549.26 375.402 549.245L375.403 549.245ZM386.495 457.094C386.411 456.943 386.328 456.792 386.246 456.64C386.316 456.741 386.385 456.839 386.454 456.934C386.468 456.985 386.481 457.039 386.495 457.094ZM380.04 426.545C379.473 434.23 380.349 445.742 386.246 456.64C383.012 451.956 378.73 440.999 380.04 426.545ZM380.828 420.849C380.465 422.8 380.207 424.701 380.04 426.545C380.207 424.274 380.501 422.337 380.828 420.849ZM365.821 576.157C368.019 575.932 370.39 575.536 372.534 574.989L374.344 551.212L372.011 552.892L371.753 550.847L372.474 550.569C372.238 550.34 371.941 550.086 371.605 549.8C370.663 548.999 369.419 547.94 368.373 546.421C367.199 544.715 366.303 541.869 365.598 539.628L365.598 539.627C365.513 539.359 365.432 539.1 365.353 538.853C362.247 550.099 356.401 574.258 358.144 575.763L358.137 575.757C359.045 576.494 361.927 576.531 365.821 576.157L365.821 576.157Z" fill="#C2AB61"/>
<path d="M381.586 561.054C380.426 562.15 377.468 555.851 376.932 554.269L376.945 554.29C377.662 555.492 380.84 560.818 382.006 558.947C382.658 557.901 385.205 557.159 386.046 557.567C387.463 558.015 389.701 555.698 389.944 553.811C390.408 552.206 391.321 550.317 392.177 548.549C392.911 547.03 393.603 545.6 393.929 544.516L393.822 546.39L393.257 547.548L392.949 548.236L392.511 549.624L391.986 550.918L391.556 552.41C390.91 557.994 387.811 558.591 385.389 559.059C384.904 559.152 384.447 559.24 384.042 559.362L382.831 560.092L381.586 561.054Z" fill="#C2AB61"/>
<path d="M411.585 454.451L408.293 463.03C408.483 463.012 408.66 463.041 408.823 463.117C409.681 462.908 409.628 462.279 410.426 461.581L411.585 454.451Z" fill="#C2AB61"/>
<path d="M433.23 371.006C427.069 371.615 412.252 387.86 407.561 428.563C407.561 428.563 405.794 440.086 406.084 442.074C406.373 444.062 406.625 461.838 408.293 463.03M433.23 371.006C419.778 359.843 392.505 386.783 383.954 409.66C382.505 413.537 381.491 417.279 380.828 420.849M433.23 371.006C434.668 373.837 436.491 380.89 432.281 386.455M396.847 570.643L396.411 570.734L396.411 570.734C388.382 572.419 374.557 575.32 365.821 576.157M396.847 570.643C404.038 535.013 415.054 466.011 408.823 463.117M396.847 570.643L401.122 568.363C407.756 533.407 416.415 459.958 410.426 461.581M408.823 463.117C408.624 463.166 408.446 463.14 408.293 463.03M408.823 463.117C408.66 463.041 408.483 463.012 408.293 463.03M408.823 463.117C409.681 462.908 409.628 462.279 410.426 461.581M408.293 463.03C405.746 475.801 400.519 498.054 400.066 504.29M408.293 463.03L411.585 454.451M400.066 504.29C400.066 504.29 401.428 505.559 401.091 507.077C400.767 508.534 398.932 509.973 398.932 509.973C398.932 509.973 397.753 508.779 398 507.383C398.258 505.924 400.066 504.29 400.066 504.29ZM411.585 454.451L410.426 461.581M411.585 454.451C411.469 454.303 411.354 454.131 411.243 453.934M375.402 549.245C375.244 548.656 369.328 524.932 373.271 505.158C376.76 487.66 386.541 471.315 389.86 465.769C390.386 464.889 390.75 464.281 390.9 463.983C392.001 461.804 393.068 459.318 392.256 456.707C391.445 454.096 386.054 432.17 388.918 417.811C391.781 403.452 407.324 377.8 407.324 377.8C399.604 383.117 384.773 402.048 381.483 418.546C381.267 419.103 381.04 419.881 380.828 420.849M375.402 549.245L375.403 549.245C375.406 549.26 375.406 549.26 375.402 549.245ZM375.402 549.245C364.034 547.469 363.059 525.6 368.651 505.614C374.5 484.708 380.82 473.389 384.606 466.609C385.203 465.541 385.736 464.585 386.195 463.723C387.474 461.319 387.251 458.428 386.758 457.561C386.669 457.406 386.582 457.25 386.495 457.094M426.194 386.404C423.143 393.481 419.164 403.7 415.919 414.317M426.194 386.404C426.206 386.401 426.218 386.397 426.23 386.394M426.194 386.404L426.23 386.394M411.235 453.94C411.238 453.938 411.24 453.936 411.243 453.934M411.235 453.94C411.229 453.923 411.224 453.907 411.218 453.89M411.235 453.94L411.243 453.934M438.818 440.623C436.072 441.134 432.931 438.933 429.319 440.496C423.171 443.156 416.182 450.32 411.243 453.934M438.818 440.623C433.866 422.997 439.484 416.497 442.314 415.13C444.681 413.986 448.907 414.345 451.025 415.149M438.818 440.623C447.184 439.796 455.08 418.2 451.996 415.665M451.025 415.149C447.49 413.332 441.021 410.569 437.195 410.947C441.789 396.451 438.124 388.43 432.281 386.455M451.025 415.149C451.439 415.307 451.773 415.481 451.996 415.665M451.025 415.149C451.38 415.332 451.706 415.505 451.996 415.665M427.246 392.266C425.572 392.875 423.135 395.101 421.022 402.399C418.909 409.697 420.268 414.88 422.321 415.12C424.557 414.899 429.594 409.705 430.805 401.432C431.279 398.193 431.122 396.056 430.643 394.667C429.899 392.509 428.379 392.154 427.246 392.266ZM427.246 392.266C427.246 392.266 429.095 395.412 428.525 400.164C428.298 402.056 427.629 404.311 427.053 406.252C426.182 409.187 425.524 411.406 426.927 410.572C429.259 409.185 431.57 397.225 430.581 394.673C429.592 392.122 427.246 392.266 427.246 392.266ZM432.281 386.455C433.59 382.074 432.395 379.663 431.634 379.005C429.93 378.904 427.724 382.793 426.23 386.394M432.281 386.455C430.419 385.826 428.337 385.81 426.23 386.394M411.243 453.934C411.235 453.919 411.226 453.905 411.218 453.89M411.218 453.89C409.244 450.324 408.22 438.858 415.919 414.317M411.218 453.89C408.233 445.016 411.348 429.271 415.919 414.317M415.919 414.317C418.217 406.991 421.293 398.5 425.353 388.706C425.601 387.981 425.898 387.195 426.23 386.394M365.821 576.157C368.019 575.932 370.39 575.536 372.534 574.989L374.344 551.212L372.011 552.892L371.753 550.847L372.474 550.569C372.238 550.34 371.941 550.086 371.605 549.8C370.663 548.999 369.419 547.94 368.373 546.421C367.199 544.715 366.303 541.869 365.598 539.628L365.598 539.627C365.513 539.359 365.432 539.1 365.353 538.853C362.247 550.099 356.401 574.258 358.144 575.763M365.821 576.157L365.821 576.157M358.144 575.763C358.142 575.761 358.139 575.759 358.137 575.757M358.144 575.763C358.152 575.77 358.161 575.777 358.17 575.783C359.088 576.433 362.223 576.525 365.821 576.157M358.144 575.763C359.06 576.494 361.937 576.53 365.821 576.157M358.144 575.763L358.137 575.757M358.137 575.757C359.045 576.494 361.927 576.531 365.821 576.157M358.137 575.757C358.048 575.685 357.978 575.606 357.928 575.52C356.197 572.555 362.495 547.761 365.861 535.735C361.113 509.684 382.066 468.372 384.775 465.354C387.139 462.72 386.926 458.854 386.495 457.094M386.495 457.094C386.481 457.039 386.468 456.985 386.454 456.934C386.385 456.839 386.316 456.741 386.246 456.64M386.495 457.094C386.411 456.943 386.328 456.792 386.246 456.64M380.828 420.849C380.501 422.337 380.207 424.274 380.04 426.545M380.828 420.849C380.465 422.8 380.207 424.701 380.04 426.545M386.246 456.64C383.012 451.956 378.73 440.999 380.04 426.545M386.246 456.64C380.349 445.742 379.473 434.23 380.04 426.545M381.586 561.054C380.426 562.15 377.468 555.851 376.932 554.269L376.945 554.29C377.662 555.492 380.84 560.818 382.006 558.947C382.658 557.901 385.205 557.159 386.046 557.567C387.463 558.015 389.701 555.698 389.944 553.811C390.408 552.206 391.321 550.317 392.177 548.549C392.911 547.03 393.603 545.6 393.929 544.516L393.822 546.39L393.257 547.548L392.949 548.236L392.511 549.624L391.986 550.918L391.556 552.41C390.91 557.994 387.811 558.591 385.389 559.059C384.904 559.152 384.447 559.24 384.042 559.362L382.831 560.092L381.586 561.054ZM443.59 418.571C439.112 419.014 436.872 426.111 440.2 435.569C442.651 431.953 446.765 420.789 443.59 418.571ZM449.153 418.022C446.575 418.276 443.795 424.879 445.085 435.087C447.409 430.99 454.752 416.625 449.153 418.022Z" stroke="#938046"/>
<path d="M388.319 390.507C394.905 379.017 402.49 369.975 410.57 365.279C420.38 361.863 428.469 361.513 435.011 363.441C441.56 365.371 446.67 369.615 450.462 375.59C458.082 387.595 460.324 406.516 457.991 427.07C455.661 447.587 448.792 469.541 438.407 487.485C428.058 505.368 414.304 519.123 398.216 523.667C387.087 521.514 377.762 514.179 370.211 501.101C366.334 494.385 364.782 483.761 365.247 471.148C365.712 458.573 368.174 444.174 372.18 430.025C376.185 415.876 381.723 402.014 388.319 390.507ZM418.48 521.18C412.954 523.151 407.822 524.232 403.034 524.16C417.961 518.364 430.566 505.026 440.138 488.487C450.672 470.286 457.62 448.064 459.978 427.296C462.332 406.566 460.132 387.093 452.15 374.518C448.142 368.203 442.661 363.611 435.576 361.523C430.546 360.041 424.764 359.837 418.202 361.116C431.371 354.398 442.291 351.433 451.609 352.53C462.56 353.819 471.55 360.761 479.501 374.533C483.387 381.263 485.162 391.827 485.035 404.331C484.909 416.799 482.895 431.057 479.33 445.067C475.765 459.077 470.657 472.804 464.365 484.22C458.061 495.655 450.622 504.675 442.44 509.398C433.769 514.404 425.815 518.563 418.48 521.18Z" stroke="black" stroke-width="2"/>
</g>
</svg>
