<svg width="236" height="419" viewBox="0 0 236 419" fill="none" xmlns="http://www.w3.org/2000/svg">
<path d="M0 20.7501C87.868 20.7501 137.132 20.7501 225 20.7501C229.296 16.4543 231.704 14.0458 236 9.75006C177 -3.25002 83.5 -3.25002 24.5 9.75006C14.2577 12.0068 9.56785 16.4543 0 20.7501Z" fill="#636363"/>
<path d="M225 20.7501C225 176.179 225 263.321 225 418.75C232.08 416.035 236 410.333 236 402.75C236 309.75 236 163.226 236 9.75006C231.704 14.0458 229.296 16.4543 225 20.7501Z" fill="#D9D9D9"/>
<path d="M225 20.7501C137.132 20.7501 87.868 20.7501 0 20.7501C0 176.179 0 418.75 0 418.75C0 418.75 137.132 418.75 225 418.75C225 263.321 225 176.179 225 20.7501Z" fill="#BBBBBB"/>
<path d="M227.5 21.7856V22.5684V23.4752V24.3805V25.2842V26.1864V27.0871V27.9863V28.8839V29.7801V30.6747V31.5679V32.4595V33.3497V34.2384V35.1256V36.0114V36.8957V37.7785V38.6599V39.5399V40.4184V41.2955V42.1711V43.0454V43.9182V44.7897V45.6597V46.5284V47.3956V48.2615V49.126V49.9892V50.851V51.7114V52.5705V53.4282V54.2846V55.1397V55.9934V56.8458V57.6969V58.5467V59.3952V60.2425V61.0884V61.933V62.7764V63.6185V64.4593V65.2989V66.1372V66.9743V67.8101V68.6447V69.4781V70.3102V71.1412V71.9709V72.7994V73.6268V74.4529V75.2779V76.1016V76.9242V77.7457V78.5659V79.3851V80.2031V81.0199V81.8356V82.6502V83.4636V84.2759V85.0872V85.8973V86.7063V87.5142V88.321V89.1268V89.9315V90.7351V91.5376V92.3391V93.1396V93.939V94.7373V95.5347V96.331V97.1262V97.9205V98.7138V99.506V100.297V101.088V101.877V102.665V103.453V104.239V105.024V105.809V106.592V107.375V108.157V108.937V109.717V110.496V111.274V112.051V112.827V113.602V114.377V115.15V115.923V116.695V117.466V118.236V119.005V119.773V120.541V121.308V122.074V122.839V123.603V124.366V125.129V125.891V126.652V127.412V128.172V128.93V129.688V130.446V131.202V131.958V132.713V133.467V134.221V134.973V135.725V136.477V137.227V137.977V138.727V139.475V140.223V140.971V141.717V142.463V143.208V143.953V144.697V145.44V146.183V146.925V147.667V148.408V149.148V149.887V150.627V151.365V152.103V152.84V153.577V154.313V155.049V155.784V156.519V157.253V157.986V158.719V159.452V160.184V160.915V161.646V162.376V163.106V163.836V164.565V165.293V166.021V166.749V167.476V168.203V168.929V169.655V170.38V171.105V171.83V172.554V173.278V174.001V174.724V175.447V176.169V176.891V177.612V178.333V179.054V179.774V180.495V181.214V181.934V182.653V183.371V184.09V184.808V185.526V186.243V186.961V187.678V188.394V189.111V189.827V190.543V191.259V191.974V192.689V193.404V194.119V194.833V195.548V196.262V196.976V197.689V198.403V199.116V199.829V200.542V201.255V201.968V202.68V203.393V204.105V204.817V205.529V206.241V206.952V207.664V208.375V209.087V209.798V210.509V211.22V211.931V212.642V213.353V214.064V214.775V215.486V216.197V216.907V217.618V218.329V219.039V219.75V220.461V221.171V221.882V222.593V223.303V224.014V224.725V225.436V226.147V226.858V227.569V228.28V228.991V229.702V230.413V231.125V231.836V232.548V233.259V233.971V234.683V235.395V236.108V236.82V237.532V238.245V238.958V239.671V240.384V241.097V241.811V242.524V243.238V243.952V244.667V245.381V246.096V246.811V247.526V248.241V248.957V249.673V250.389V251.106V251.822V252.539V253.257V253.974V254.692V255.41V256.129V256.847V257.566V258.286V259.005V259.726V260.446V261.167V261.888V262.609V263.331V264.053V264.776V265.499V266.222V266.946V267.67V268.395V269.12V269.845V270.571V271.297V272.024V272.751V273.479V274.207V274.935V275.664V276.394V277.124V277.854V278.585V279.316V280.048V280.781V281.514V282.247V282.981V283.716V284.451V285.187V285.923V286.66V287.397V288.135V288.873V289.613V290.352V291.092V291.833V292.575V293.317V294.06V294.803V295.547V296.292V297.037V297.783V298.529V299.277V300.025V300.773V301.523V302.273V303.023V303.775V304.527V305.28V306.033V306.787V307.542V308.298V309.054V309.812V310.57V311.328V312.088V312.848V313.609V314.371V315.134V315.897V316.661V317.427V318.192V318.959V319.727V320.495V321.264V322.034V322.805V323.577V324.35V325.123V325.898V326.673V327.449V328.226V329.004V329.783V330.563V331.343V332.125V332.908V333.691V334.476V335.261V336.047V336.835V337.623V338.412V339.203V339.994V340.786V341.579V342.374V343.169V343.965V344.763V345.561V346.36V347.161V347.962V348.765V349.569V350.373V351.179V351.986V352.794V353.603V354.413V355.224V356.036V356.85V357.664V358.48V359.297V360.115V360.934V361.754V362.576V363.398V364.222V365.047V365.873V366.701V367.529V368.359V369.19V370.022V370.855V371.69V372.526V373.363V374.201V375.041V375.882V376.724V377.567V378.412V379.258V380.105V380.953V381.803V382.654V383.507V384.36V385.215V386.072V386.93V387.789V388.649V389.511V390.374V391.238V392.104V392.972V393.84V394.71V395.582V396.455V397.329V398.205V399.082V399.96V400.84V401.722V402.604V403.489V404.374V405.262V406.15V407.04V407.932V408.825V409.72V410.616V411.514V412.413V413.314V414.216V414.676V21.7856ZM227.5 21.7856L232.268 17.0178L233.5 15.7856L227.5 21.7856ZM2.5 23.2501H2.56328H3.07333H3.58251H4.09083H4.5983H5.10491H5.61067H6.11559H6.61967H7.12291H7.62531H8.12688H8.62762H9.12754H9.62664H10.1249H10.6224H11.119H11.6149H12.1099H12.6042H13.0976H13.5902H14.0821H14.5732H15.0635H15.553H16.0417H16.5297H17.0168H17.5033H17.9889H18.4738H18.958H19.4414H19.924H20.4059H20.8871H21.3675H21.8472H22.3261H22.8043H23.2818H23.7586H24.2347H24.71H25.1846H25.6586H26.1318H26.6043H27.0761H27.5473H28.0177H28.4874H28.9565H29.4249H29.8926H30.3597H30.826H31.2917H31.7568H32.2211H32.6849H33.1479H33.6104H34.0722H34.5333H34.9938H35.4536H35.9129H36.3715H36.8295H37.2868H37.7436H38.1997H38.6552H39.1101H39.5644H40.0181H40.4712H40.9237H41.3757H41.827H42.2777H42.7279H43.1775H43.6265H44.075H44.5229H44.9702H45.417H45.8632H46.3088H46.7539H47.1985H47.6425H48.086H48.5289H48.9714H49.4132H49.8546H50.2955H50.7358H51.1756H51.6149H52.0537H52.492H52.9298H53.367H53.8038H54.2402H54.676H55.1113H55.5462H55.9805H56.4145H56.8479H57.2809H57.7134H58.1454H58.577H59.0082H59.4389H59.8691H60.2989H60.7283H61.1572H61.5857H62.0138H62.4415H62.8687H63.2955H63.7219H64.1479H64.5735H64.9986H65.4234H65.8478H66.2718H66.6954H67.1186H67.5414H67.9639H68.3859H68.8076H69.229H69.6499H70.0705H70.4908H70.9106H71.3302H71.7494H72.1682H72.5867H73.0049H73.4227H73.8402H74.2573H74.6742H75.0907H75.5069H75.9228H76.3384H76.7536H77.1686H77.5833H77.9976H78.4117H78.8255H79.239H79.6522H80.0652H80.4778H80.8902H81.3023H81.7142H82.1258H82.5371H82.9482H83.359H83.7696H84.1799H84.59H84.9999H85.4095H85.8189H86.228H86.6369H87.0457H87.4542H87.8624H88.2705H88.6784H89.086H89.4935H89.9008H90.3078H90.7147H91.1214H91.5279H91.9342H92.3404H92.7464H93.1522H93.5578H93.9633H94.3687H94.7738H95.1788H95.5837H95.9884H96.393H96.7975H97.2018H97.606H98.01H98.4139H98.8178H99.2214H99.625H100.028H100.432H100.835H101.238H101.641H102.044H102.447H102.85H103.253H103.655H104.058H104.46H104.863H105.265H105.667H106.07H106.472H106.874H107.276H107.678H108.08H108.482H108.884H109.286H109.688H110.089H110.491H110.893H111.295H111.696H112.098H112.5H112.902H113.304H113.705H114.107H114.509H114.911H115.312H115.714H116.116H116.518H116.92H117.322H117.724H118.126H118.528H118.93H119.333H119.735H120.137H120.54H120.942H121.345H121.747H122.15H122.553H122.956H123.359H123.762H124.165H124.568H124.972H125.375H125.779H126.182H126.586H126.99H127.394H127.798H128.203H128.607H129.012H129.416H129.821H130.226H130.631H131.037H131.442H131.848H132.254H132.66H133.066H133.472H133.879H134.285H134.692H135.099H135.507H135.914H136.322H136.729H137.138H137.546H137.954H138.363H138.772H139.181H139.591H140H140.41H140.82H141.23H141.641H142.052H142.463H142.874H143.286H143.698H144.11H144.522H144.935H145.348H145.761H146.174H146.588H147.002H147.417H147.831H148.246H148.662H149.077H149.493H149.909H150.326H150.743H151.16H151.577H151.995H152.413H152.832H153.251H153.67H154.089H154.509H154.929H155.35H155.771H156.192H156.614H157.036H157.459H157.881H158.305H158.728H159.152H159.577H160.001H160.427H160.852H161.278H161.704H162.131H162.559H162.986H163.414H163.843H164.272H164.701H165.131H165.561H165.992H166.423H166.855H167.287H167.719H168.152H168.586H169.019H169.454H169.889H170.324H170.76H171.196H171.633H172.07H172.508H172.946H173.385H173.824H174.264H174.705H175.145H175.587H176.029H176.471H176.914H177.357H177.802H178.246H178.691H179.137H179.583H180.03H180.477H180.925H181.373H181.822H182.272H182.722H183.173H183.624H184.076H184.529H184.982H185.436H185.89H186.345H186.8H187.256H187.713H188.171H188.629H189.087H189.546H190.006H190.467H190.928H191.39H191.852H192.315H192.779H193.243H193.708H194.174H194.64H195.107H195.575H196.043H196.513H196.982H197.453H197.924H198.396H198.868H199.341H199.815H200.29H200.765H201.241H201.718H202.196H202.674H203.153H203.633H204.113H204.594H205.076H205.559H206.042H206.526H207.011H207.497H207.983H208.47H208.958H209.447H209.937H210.427H210.918H211.41H211.902H212.396H212.89H213.385H213.881H214.378H214.875H215.373H215.872H216.372H216.873H217.375H217.877H218.38H218.884H219.389H219.895H220.402H220.909H221.417H221.927H222.437H222.5V23.4752V24.3805V25.2842V26.1864V27.0871V27.9863V28.8839V29.7801V30.6747V31.5679V32.4595V33.3497V34.2384V35.1256V36.0114V36.8957V37.7785V38.6599V39.5399V40.4184V41.2955V42.1711V43.0454V43.9182V44.7897V45.6597V46.5284V47.3956V48.2615V49.126V49.9892V50.851V51.7114V52.5705V53.4282V54.2846V55.1397V55.9934V56.8458V57.6969V58.5467V59.3952V60.2425V61.0884V61.933V62.7764V63.6185V64.4593V65.2989V66.1372V66.9743V67.8101V68.6447V69.4781V70.3102V71.1412V71.9709V72.7994V73.6268V74.4529V75.2779V76.1016V76.9242V77.7457V78.5659V79.3851V80.2031V81.0199V81.8356V82.6502V83.4636V84.2759V85.0872V85.8973V86.7063V87.5142V88.321V89.1268V89.9315V90.7351V91.5376V92.3391V93.1396V93.939V94.7373V95.5347V96.331V97.1262V97.9205V98.7138V99.506V100.297V101.088V101.877V102.665V103.453V104.239V105.024V105.809V106.592V107.375V108.157V108.937V109.717V110.496V111.274V112.051V112.827V113.602V114.377V115.15V115.923V116.695V117.466V118.236V119.005V119.773V120.541V121.308V122.074V122.839V123.603V124.366V125.129V125.891V126.652V127.412V128.172V128.93V129.688V130.446V131.202V131.958V132.713V133.467V134.221V134.973V135.725V136.477V137.227V137.977V138.727V139.475V140.223V140.971V141.717V142.463V143.208V143.953V144.697V145.44V146.183V146.925V147.667V148.408V149.148V149.887V150.627V151.365V152.103V152.84V153.577V154.313V155.049V155.784V156.519V157.253V157.986V158.719V159.452V160.184V160.915V161.646V162.376V163.106V163.836V164.565V165.293V166.021V166.749V167.476V168.203V168.929V169.655V170.38V171.105V171.83V172.554V173.278V174.001V174.724V175.447V176.169V176.891V177.612V178.333V179.054V179.774V180.495V181.214V181.934V182.653V183.371V184.09V184.808V185.526V186.243V186.961V187.678V188.394V189.111V189.827V190.543V191.259V191.974V192.689V193.404V194.119V194.833V195.548V196.262V196.976V197.689V198.403V199.116V199.829V200.542V201.255V201.968V202.68V203.393V204.105V204.817V205.529V206.241V206.952V207.664V208.375V209.087V209.798V210.509V211.22V211.931V212.642V213.353V214.064V214.775V215.486V216.197V216.907V217.618V218.329V219.039V219.75V220.461V221.171V221.882V222.593V223.303V224.014V224.725V225.436V226.147V226.858V227.569V228.28V228.991V229.702V230.413V231.125V231.836V232.548V233.259V233.971V234.683V235.395V236.108V236.82V237.532V238.245V238.958V239.671V240.384V241.097V241.811V242.524V243.238V243.952V244.667V245.381V246.096V246.811V247.526V248.241V248.957V249.673V250.389V251.106V251.822V252.539V253.257V253.974V254.692V255.41V256.129V256.847V257.566V258.286V259.005V259.726V260.446V261.167V261.888V262.609V263.331V264.053V264.776V265.499V266.222V266.946V267.67V268.395V269.12V269.845V270.571V271.297V272.024V272.751V273.479V274.207V274.935V275.664V276.394V277.124V277.854V278.585V279.316V280.048V280.781V281.514V282.247V282.981V283.716V284.451V285.187V285.923V286.66V287.397V288.135V288.873V289.613V290.352V291.092V291.833V292.575V293.317V294.06V294.803V295.547V296.292V297.037V297.783V298.529V299.277V300.025V300.773V301.523V302.273V303.023V303.775V304.527V305.28V306.033V306.787V307.542V308.298V309.054V309.812V310.57V311.328V312.088V312.848V313.609V314.371V315.134V315.897V316.661V317.427V318.192V318.959V319.727V320.495V321.264V322.034V322.805V323.577V324.35V325.123V325.898V326.673V327.449V328.226V329.004V329.783V330.563V331.343V332.125V332.908V333.691V334.476V335.261V336.047V336.835V337.623V338.412V339.203V339.994V340.786V341.579V342.374V343.169V343.965V344.763V345.561V346.36V347.161V347.962V348.765V349.569V350.373V351.179V351.986V352.794V353.603V354.413V355.224V356.036V356.85V357.664V358.48V359.297V360.115V360.934V361.754V362.576V363.398V364.222V365.047V365.873V366.701V367.529V368.359V369.19V370.022V370.855V371.69V372.526V373.363V374.201V375.041V375.882V376.724V377.567V378.412V379.258V380.105V380.953V381.803V382.654V383.507V384.36V385.215V386.072V386.93V387.789V388.649V389.511V390.374V391.238V392.104V392.972V393.84V394.71V395.582V396.455V397.329V398.205V399.082V399.96V400.84V401.722V402.604V403.489V404.374V405.262V406.15V407.04V407.932V408.825V409.72V410.616V411.514V412.413V413.314V414.216V415.12V416.025V416.25H222.412H221.891H221.369H220.846H220.322H219.796H219.27H218.743H218.215H217.685H217.155H216.624H216.091H215.558H215.024H214.489H213.952H213.415H212.877H212.338H211.798H211.257H210.715H210.173H209.629H209.085H208.539H207.993H207.446H206.898H206.349H205.799H205.249H204.698H204.146H203.593H203.039H202.485H201.929H201.373H200.817H200.259H199.701H199.142H198.582H198.022H197.46H196.899H196.336H195.773H195.209H194.644H194.079H193.513H192.946H192.379H191.811H191.243H190.674H190.104H189.534H188.963H188.392H187.82H187.247H186.674H186.101H185.526H184.952H184.376H183.801H183.225H182.648H182.071H181.493H180.915H180.336H179.757H179.178H178.598H178.017H177.436H176.855H176.274H175.692H175.109H174.526H173.943H173.36H172.776H172.192H171.607H171.022H170.437H169.852H169.266H168.68H168.093H167.507H166.92H166.333H165.745H165.157H164.57H163.981H163.393H162.804H162.216H161.627H161.038H160.448H159.859H159.269H158.679H158.089H157.499H156.909H156.319H155.728H155.138H154.547H153.956H153.365H152.774H152.184H151.592H151.001H150.41H149.819H149.228H148.637H148.046H147.455H146.864H146.272H145.681H145.09H144.499H143.908H143.318H142.727H142.136H141.546H140.955H140.365H139.774H139.184H138.594H138.004H137.414H136.825H136.235H135.646H135.057H134.468H133.879H133.291H132.703H132.114H131.527H130.939H130.352H129.765H129.178H128.591H128.005H127.419H126.833H126.248H125.663H125.078H124.494H123.91H123.326H122.742H122.159H121.577H120.995H120.413H119.831H119.25H118.669H118.089H117.509H116.93H116.351H115.773H115.195H114.617H114.04H113.464H112.888H112.312H111.737H111.162H110.589H110.015H109.442H108.87H108.298H107.727H107.156H106.586H106.017H105.448H104.88H104.312H103.745H103.179H102.613H102.048H101.484H100.92H100.357H99.7948H99.2331H98.6722H98.112H97.5525H96.9938H96.4358H95.8785H95.322H94.7663H94.2113H93.6571H93.1037H92.5511H91.9993H91.4483H90.8982H90.3489H89.8004H89.2527H88.7059H88.16H87.615H87.0708H86.5275H85.9851H85.4436H84.9031H84.3634H83.8247H83.2869H82.7501H82.2142H81.6793H81.1454H80.6124H80.0805H79.5495H79.0195H78.4906H77.9627H77.4358H76.9099H76.3851H75.8614H75.3387H74.817H74.2965H73.7771H73.2587H72.7415H72.2253H71.7103H71.1964H70.6837H70.1721H69.6617H69.1524H68.6443H68.1374H67.6316H67.1271H66.6238H66.1217H65.6208H65.1211H64.6227H64.1255H63.6296H63.1349H62.6415H62.1494H61.6586H61.1691H60.6809H60.194H59.7084H59.2242H58.7413H58.2597H57.7795H57.3007H56.8232H56.3471H55.8724H55.3991H54.9272H54.4567H53.9877H53.52H53.0538H52.5891H52.1258H51.664H51.2036H50.7448H50.2874H49.8315H49.3771H48.9243H48.4729H48.0231H47.5748H47.1281H46.6829H46.2393H45.7973H45.3568H44.918H44.4807H44.045H43.611H43.1785H42.7477H42.3186H41.8911H41.4652H41.041H40.6185H40.1977H39.7785H39.3611H38.9453H38.5313H38.119H37.7084H37.2996H36.8925H36.4871H36.0835H35.6817H35.2817H34.8835H34.487H34.0924H33.6996H33.3086H32.9194H32.5321H32.1466H31.763H31.3812H31.0014H30.6233H30.2472H29.873H29.5007H29.1303H28.7618H28.3953H28.0307H27.668H27.3073H26.9485H26.5918H26.237H25.8842H25.5334H25.1846H24.8378H24.493H24.1503H23.8096H23.4709H23.1343H22.7998H22.4674H22.137H21.8087H21.4825H21.1584H20.8365H20.5166H20.1989H19.8833H19.5699H19.2586H18.9495H18.6425H18.3378H18.0352H17.7348H17.4367H17.1407H16.847H16.5555H16.2662H15.9792H15.6944H15.4119H15.1317H14.8538H14.5781H14.3048H14.0337H13.765H13.4985H13.2345H12.9727H12.7133H12.4563H12.2016H11.9493H11.6993H11.4518H11.2067H10.9639H10.7236H10.4857H10.2502H10.0172H9.7866H9.55847H9.33281H9.10961H8.8889H8.67067H8.45494H8.24172H8.03101H7.82282H7.61717H7.41405H7.21348H7.01546H6.82001H6.62713H6.43683H6.24912H6.06401H5.8815H5.70161H5.52434H5.34969H5.17769H5.00834H4.84163H4.6776H4.51623H4.35755H4.20155H4.04826H3.89766H3.74978H3.60463H3.4622H3.32251H3.18557H3.05139H2.91996H2.79132H2.66545H2.54237H2.5V416.155V415.988V415.815V415.637V415.455V415.267V415.074V414.876V414.673V414.466V414.253V414.035V413.812V413.585V413.352V413.115V412.873V412.626V412.374V412.117V411.855V411.589V411.318V411.042V410.761V410.476V410.186V409.891V409.591V409.287V408.978V408.664V408.346V408.023V407.696V407.364V407.027V406.686V406.34V405.99V405.635V405.276V404.912V404.544V404.171V403.794V403.413V403.026V402.636V402.241V401.842V401.439V401.031V400.618V400.202V399.781V399.356V398.927V398.493V398.055V397.613V397.167V396.716V396.262V395.803V395.34V394.873V394.401V393.926V393.446V392.963V392.475V391.984V391.488V390.988V390.485V389.977V389.465V388.95V388.43V387.906V387.379V386.848V386.312V385.773V385.23V384.684V384.133V383.579V383.02V382.458V381.893V381.323V380.75V380.173V379.592V379.008V378.42V377.828V377.233V376.633V376.031V375.425V374.815V374.201V373.584V372.964V372.34V371.712V371.081V370.446V369.808V369.167V368.522V367.874V367.222V366.567V365.908V365.246V364.581V363.912V363.24V362.565V361.886V361.204V360.519V359.831V359.139V358.444V357.746V357.045V356.341V355.633V354.922V354.208V353.491V352.771V352.048V351.322V350.592V349.86V349.125V348.386V347.645V346.9V346.153V345.403V344.649V343.893V343.134V342.372V341.607V340.839V340.069V339.295V338.519V337.74V336.958V336.173V335.386V334.595V333.802V333.007V332.208V331.407V330.604V329.797V328.988V328.176V327.362V326.545V325.726V324.904V324.079V323.252V322.422V321.59V320.755V319.918V319.078V318.236V317.392V316.544V315.695V314.843V313.989V313.132V312.273V311.412V310.549V309.683V308.815V307.944V307.071V306.196V305.319V304.44V303.558V302.674V301.788V300.9V300.01V299.117V298.223V297.326V296.427V295.526V294.623V293.718V292.811V291.902V290.991V290.078V289.163V288.247V287.328V286.407V285.484V284.56V283.633V282.705V281.775V280.843V279.909V278.973V278.036V277.097V276.156V275.213V274.268V273.322V272.374V271.425V270.473V269.52V268.566V267.61V266.652V265.692V264.731V263.769V262.805V261.839V260.872V259.903V258.933V257.961V256.988V256.013V255.037V254.06V253.081V252.101V251.119V250.136V249.152V248.166V247.179V246.19V245.201V244.21V243.218V242.224V241.23V240.234V239.237V238.238V237.239V236.238V235.236V234.233V233.229V232.224V231.218V230.211V229.203V228.193V227.183V226.171V225.159V224.146V223.131V222.116V221.1V220.083V219.064V218.045V217.026V216.005V214.983V213.961V212.938V211.914V210.889V209.863V208.837V207.81V206.782V205.753V204.724V203.694V202.664V201.632V200.6V199.568V198.535V197.501V196.467V195.432V194.396V193.36V192.324V191.286V190.249V189.211V188.172V187.133V186.094V185.054V184.014V182.973V181.932V180.891V179.849V178.807V177.765V176.722V175.679V174.636V173.593V172.549V171.505V170.461V169.416V168.372V167.327V166.282V165.237V164.192V163.147V162.101V161.056V160.01V158.965V157.919V156.873V155.828V154.782V153.736V152.691V151.645V150.6V149.554V148.509V147.464V146.419V145.374V144.329V143.284V142.24V141.196V140.152V139.108V138.064V137.021V135.978V134.935V133.893V132.85V131.809V130.767V129.726V128.685V127.645V126.605V125.565V124.526V123.488V122.449V121.412V120.374V119.338V118.301V117.266V116.231V115.196V114.162V113.129V112.096V111.064V110.032V109.001V107.971V106.942V105.913V104.885V103.857V102.831V101.805V100.78V99.7555V98.732V97.7093V96.6874V95.6664V94.6462V93.6269V92.6085V91.591V90.5745V89.5588V88.5441V87.5304V86.5176V85.5058V84.4951V83.4853V82.4766V81.469V80.4624V79.4569V78.4525V77.4492V76.447V75.446V74.4461V73.4474V72.4499V71.4535V70.4584V69.4645V68.4719V67.4805V66.4904V65.5016V64.514V63.5278V62.543V61.5594V60.5773V59.5965V58.6171V57.6391V56.6625V55.6873V54.7136V53.7414V52.7706V51.8014V50.8336V49.8674V48.9027V47.9396V46.978V46.018V45.0596V44.1028V43.1477V42.1942V41.2423V40.2921V39.3436V38.3968V37.4517V36.5084V35.5667V34.6269V33.6888V32.7525V31.818V30.8853V29.9545V29.0255V28.0983V27.1731V26.2497V25.3283V24.4087V23.4911V23.2501ZM228.732 13.4823L223.964 18.2501L230.973 11.2411L228.732 13.4823Z" stroke="black" stroke-width="5"/>
<path d="M11 88.75V354.75H214V88.75H11Z" fill="#87D0E8" stroke="black" stroke-width="2"/>
<path d="M116 50.25C116 51.5075 115.29 52.8346 113.762 53.9258C112.238 55.0142 110.031 55.75 107.5 55.75C104.969 55.75 102.762 55.0142 101.238 53.9258C99.7102 52.8346 99 51.5075 99 50.25C99 48.9924 99.7102 47.6653 101.238 46.5741C102.762 45.4857 104.969 44.75 107.5 44.75C110.031 44.75 112.238 45.4857 113.762 46.5741C115.29 47.6653 116 48.9924 116 50.25Z" stroke="black" stroke-width="4"/>
<path d="M154 218.5C154 240.281 135.678 258 113 258C90.3217 258 72 240.281 72 218.5C72 196.719 90.3217 179 113 179C135.678 179 154 196.719 154 218.5Z" fill="#EEE192" stroke="black" stroke-width="2"/>
<path d="M147.5 218.5C147.5 236.666 132.115 251.5 113 251.5C93.8854 251.5 78.5 236.666 78.5 218.5C78.5 200.334 93.8854 185.5 113 185.5C132.115 185.5 147.5 200.334 147.5 218.5Z" stroke="#E7D14C" stroke-width="3"/>
</svg>
